<svg width="500" height="500" viewBox="0 0 500 500" fill="none" xmlns="http://www.w3.org/2000/svg">
    <path d="M500 253.984C500 389.855 388.071 500 250 500C111.929 500 0 389.855 0 253.984C0 118.113 111.929 7.96823 250 7.96823C388.071 7.96823 500 118.113 500 253.984Z" fill="#00FFFF"/>
    <path d="M98.72 98.1933C105.663 96.9753 110.974 97.0157 114.656 98.3147C118.376 99.5285 121.14 102.573 122.948 107.449C123.991 110.262 124.294 113.092 123.858 115.941C123.398 118.727 122.148 121.3 120.108 123.662C118.046 125.961 115.258 127.741 111.744 129.003C108.481 130.174 105.258 130.588 102.073 130.244C98.9508 129.878 96.114 128.842 93.5623 127.138L95.9612 133.608L89.8437 135.804L83.2379 117.989L88.8849 115.962C90.7216 119.765 93.4839 122.42 97.1717 123.929C100.899 125.353 104.99 125.266 109.445 123.666C112.708 122.494 114.959 120.801 116.199 118.584C117.44 116.368 117.538 113.854 116.495 111.041C115.661 108.791 114.604 107.187 113.325 106.23C112.022 105.21 110.334 104.683 108.259 104.649C106.224 104.53 103.44 104.786 99.9056 105.417L97.5077 105.853C91.85 106.893 87.0831 106.693 83.207 105.251C79.3077 103.747 76.5584 100.839 74.9591 96.5257C73.2671 91.9626 73.4634 87.8902 75.548 84.3085C77.6094 80.6642 81.1813 77.9296 86.2636 76.1047C89.1498 75.0683 91.9391 74.6333 94.6315 74.7998C97.3634 74.8813 99.7871 75.5693 101.902 76.8638L100.199 72.2695L106.222 70.1066L111.75 85.0147L106.197 87.0086C102.409 80.4358 96.5623 78.5689 88.6565 81.4076C85.4566 82.5567 83.2249 84.208 81.9616 86.3615C80.7611 88.4926 80.6243 90.8082 81.5515 93.3086C82.5249 95.9339 84.231 97.6587 86.6696 98.483C89.085 99.2447 92.3339 99.2823 96.4163 98.5955L98.72 98.1933Z" fill="black"/>
    <path d="M98.72 98.1933L98.9013 99.1749L98.9021 99.1748L98.72 98.1933ZM114.656 98.3147L114.326 99.2535L114.338 99.2576L114.349 99.2613L114.656 98.3147ZM123.858 115.941L124.848 116.11L124.849 116.099L123.858 115.941ZM120.108 123.662L120.86 124.328L120.866 124.321L120.872 124.314L120.108 123.662ZM102.073 130.244L101.963 131.234L101.972 131.235L102.073 130.244ZM93.5623 127.138L94.1176 126.312L91.5549 124.6L92.6211 127.476L93.5623 127.138ZM95.9612 133.608L96.3089 134.545L97.2501 134.207L96.9024 133.27L95.9612 133.608ZM89.8437 135.804L88.9025 136.142L89.2502 137.08L90.1913 136.742L89.8437 135.804ZM83.2379 117.989L82.8902 117.052L81.9491 117.39L82.2967 118.327L83.2379 117.989ZM88.8849 115.962L89.7888 115.536L89.393 114.717L88.5372 115.024L88.8849 115.962ZM97.1717 123.929L96.7959 124.851L96.8069 124.855L96.8181 124.859L97.1717 123.929ZM116.199 118.584L117.077 119.074L116.199 118.584ZM113.325 106.23L112.707 107.011L112.716 107.017L112.725 107.024L113.325 106.23ZM108.259 104.649L108.208 105.644L108.229 105.645L108.25 105.645L108.259 104.649ZM99.9056 105.417L99.7204 104.436L99.7174 104.437L99.9056 105.417ZM97.5077 105.853L97.3195 104.873L97.3176 104.873L97.5077 105.853ZM83.207 105.251L82.8502 106.18L82.8617 106.184L83.207 105.251ZM75.548 84.3085L76.4177 84.8124L76.4236 84.8019L75.548 84.3085ZM94.6315 74.7998L94.577 75.7946L94.5932 75.7956L94.6093 75.7961L94.6315 74.7998ZM101.902 76.8638L101.381 77.7113L103.841 79.217L102.843 76.5259L101.902 76.8638ZM100.199 72.2695L99.8511 71.3319L98.9099 71.6699L99.2576 72.6075L100.199 72.2695ZM106.222 70.1066L107.163 69.7687L106.816 68.8311L105.875 69.169L106.222 70.1066ZM111.75 85.0147L112.098 85.9523L113.039 85.6144L112.691 84.6768L111.75 85.0147ZM106.197 87.0086L105.328 87.4987L105.75 88.2317L106.545 87.9463L106.197 87.0086ZM81.9616 86.3615L81.0937 85.8547L81.0894 85.8621L81.0851 85.8696L81.9616 86.3615ZM86.6696 98.483L86.3531 99.4262L86.363 99.4296L86.3729 99.4327L86.6696 98.483ZM96.4163 98.5955L96.5914 99.5782L96.5975 99.5772L96.4163 98.5955ZM98.9021 99.1748C105.792 97.966 110.895 98.0426 114.326 99.2535L114.985 97.3758C111.054 95.9889 105.533 95.9845 98.5379 97.2117L98.9021 99.1748ZM114.349 99.2613C117.684 100.349 120.268 103.096 122.007 107.787L123.889 107.111C122.013 102.051 119.068 98.7077 114.962 97.368L114.349 99.2613ZM122.007 107.787C122.994 110.447 123.276 113.107 122.866 115.783L124.849 116.099C125.313 113.077 124.989 110.076 123.889 107.111L122.007 107.787ZM122.867 115.772C122.44 118.36 121.278 120.77 119.345 123.009L120.872 124.314C123.017 121.83 124.355 119.093 124.848 116.11L122.867 115.772ZM119.357 122.995C117.424 125.149 114.786 126.848 111.396 128.065L112.092 129.94C115.729 128.634 118.667 126.772 120.86 124.328L119.357 122.995ZM111.396 128.065C108.264 129.19 105.194 129.58 102.173 129.253L101.972 131.235C105.322 131.597 108.698 131.159 112.092 129.94L111.396 128.065ZM102.183 129.254C99.2158 128.906 96.5324 127.925 94.1176 126.312L93.007 127.964C95.6955 129.76 98.6858 130.849 101.963 131.234L102.183 129.254ZM92.6211 127.476L95.0201 133.945L96.9024 133.27L94.5035 126.8L92.6211 127.476ZM95.6136 132.67L89.496 134.867L90.1913 136.742L96.3089 134.545L95.6136 132.67ZM90.7848 135.466L84.1791 117.652L82.2967 118.327L88.9025 136.142L90.7848 135.466ZM83.5856 118.927L89.2326 116.899L88.5372 115.024L82.8902 117.052L83.5856 118.927ZM87.9809 116.387C89.9183 120.398 92.8608 123.24 96.7959 124.851L97.5476 123.008C94.1069 121.601 91.5248 119.131 89.7888 115.536L87.9809 116.387ZM96.8181 124.859C100.813 126.386 105.157 126.268 109.793 124.604L109.097 122.728C104.823 124.263 100.985 124.321 97.5254 123L96.8181 124.859ZM109.793 124.604C113.2 123.38 115.685 121.562 117.077 119.074L115.322 118.095C114.234 120.039 112.216 121.609 109.097 122.728L109.793 124.604ZM117.077 119.074C118.484 116.56 118.561 113.736 117.436 110.703L115.554 111.379C116.515 113.972 116.395 116.177 115.322 118.095L117.077 119.074ZM117.436 110.703C116.567 108.358 115.419 106.554 113.924 105.435L112.725 107.024C113.788 107.82 114.755 109.224 115.554 111.379L117.436 110.703ZM113.942 105.449C112.425 104.261 110.506 103.689 108.268 103.652L108.25 105.645C110.162 105.677 111.619 106.159 112.707 107.011L113.942 105.449ZM108.31 103.654C106.158 103.528 103.283 103.8 99.7204 104.436L100.091 106.398C103.597 105.772 106.29 105.531 108.208 105.644L108.31 103.654ZM99.7174 104.437L97.3195 104.873L97.696 106.834L100.094 106.398L99.7174 104.437ZM97.3176 104.873C91.7713 105.893 87.2023 105.675 83.5522 104.318L82.8617 106.184C86.9639 107.71 91.9287 107.894 97.6978 106.833L97.3176 104.873ZM83.5637 104.322C79.966 102.935 77.4111 100.262 75.9003 96.1878L74.0179 96.8637C75.7057 101.415 78.6494 104.56 82.8503 106.18L83.5637 104.322ZM75.9003 96.1878C74.2921 91.8508 74.5073 88.0948 76.4176 84.8124L74.6784 83.8045C72.4195 87.6857 72.2421 92.0744 74.0179 96.8637L75.9003 96.1878ZM76.4236 84.8019C78.3386 81.4166 81.6881 78.8101 86.6112 77.0423L85.9159 75.167C80.6744 77.0491 76.8803 79.9118 74.6724 83.815L76.4236 84.8019ZM86.6112 77.0423C89.387 76.0455 92.0394 75.6376 94.577 75.7946L94.6859 73.8051C91.8388 73.629 88.9126 74.091 85.9159 75.167L86.6112 77.0423ZM94.6093 75.7961C97.1837 75.8728 99.4316 76.5183 101.381 77.7113L102.424 76.0164C100.142 74.6203 97.5432 73.8898 94.6537 73.8036L94.6093 75.7961ZM102.843 76.5259L101.14 71.9316L99.2576 72.6075L100.961 77.2018L102.843 76.5259ZM100.546 73.2071L106.57 71.0442L105.875 69.169L99.8511 71.3319L100.546 73.2071ZM105.281 70.4446L110.809 85.3527L112.691 84.6768L107.163 69.7687L105.281 70.4446ZM111.402 84.0771L105.85 86.071L106.545 87.9463L112.098 85.9523L111.402 84.0771ZM107.067 86.5186C105.079 83.0689 102.49 80.7578 99.2712 79.7302C96.0691 78.7077 92.3929 79.0035 88.3088 80.47L89.0042 82.3453C92.8259 80.973 96.0261 80.7829 98.6709 81.6274C101.3 82.4668 103.528 84.3756 105.328 87.4987L107.067 86.5186ZM88.3088 80.47C84.9675 81.6698 82.5099 83.4404 81.0937 85.8547L82.8295 86.8684C83.9399 84.9755 85.9456 83.4435 89.0042 82.3453L88.3088 80.47ZM81.0851 85.8696C79.7289 88.2769 79.5914 90.8987 80.6103 93.6465L82.4926 92.9706C81.6573 90.7178 81.7932 88.7082 82.8381 86.8535L81.0851 85.8696ZM80.6103 93.6465C81.6781 96.5263 83.5958 98.4942 86.3531 99.4262L86.986 97.5397C84.8661 96.8231 83.3717 95.3414 82.4926 92.9706L80.6103 93.6465ZM86.3729 99.4327C89.0088 100.264 92.4408 100.276 96.5914 99.5782L96.2411 97.6128C92.227 98.2881 89.1613 98.2255 86.9663 97.5333L86.3729 99.4327ZM96.5975 99.5772L98.9013 99.1749L98.5387 97.2116L96.235 97.6138L96.5975 99.5772Z" fill="black"/>
    <path d="M164.743 85.7272L172.493 84.8419L167.139 39.4566L159.389 40.3419L158.769 35.0784L182.415 32.3771L183.036 37.6406L175.286 38.5259L177.535 57.5937L207.342 54.1888L205.092 35.121L197.243 36.0176L196.622 30.7541L220.269 28.0528L220.889 33.3163L213.14 34.2016L218.494 79.5869L226.243 78.7016L226.864 83.9651L203.218 86.6664L202.597 81.4029L210.446 80.5063L208.009 59.8495L178.203 63.2545L180.64 83.9112L188.39 83.0259L189.011 88.2894L165.364 90.9907L164.743 85.7272Z" fill="black"/>
    <path d="M164.743 85.7272L164.626 84.7341L163.633 84.8476L163.75 85.8407L164.743 85.7272ZM172.493 84.8419L172.61 85.835L173.604 85.7215L173.487 84.7284L172.493 84.8419ZM167.139 39.4566L168.133 39.3431L168.015 38.35L167.022 38.4635L167.139 39.4566ZM159.389 40.3419L158.396 40.4554L158.513 41.4485L159.507 41.335L159.389 40.3419ZM158.769 35.0784L158.651 34.0853L157.658 34.1988L157.775 35.1919L158.769 35.0784ZM182.415 32.3771L183.408 32.2636L183.291 31.2705L182.298 31.384L182.415 32.3771ZM183.036 37.6406L183.153 38.6337L184.146 38.5202L184.029 37.5271L183.036 37.6406ZM175.286 38.5259L175.169 37.5328L174.175 37.6463L174.293 38.6394L175.286 38.5259ZM177.535 57.5937L176.542 57.7072L176.659 58.7003L177.653 58.5868L177.535 57.5937ZM207.342 54.1888L207.459 55.1819L208.452 55.0684L208.335 54.0753L207.342 54.1888ZM205.092 35.121L206.086 35.0075L205.969 34.0144L204.975 34.1279L205.092 35.121ZM197.243 36.0176L196.25 36.1311L196.367 37.1242L197.36 37.0107L197.243 36.0176ZM196.622 30.7541L196.505 29.761L195.512 29.8745L195.629 30.8676L196.622 30.7541ZM220.269 28.0528L221.262 27.9393L221.145 26.9462L220.151 27.0597L220.269 28.0528ZM220.889 33.3163L221.007 34.3095L222 34.196L221.883 33.2028L220.889 33.3163ZM213.14 34.2016L213.023 33.2085L212.029 33.322L212.146 34.3151L213.14 34.2016ZM218.494 79.5869L217.5 79.7004L217.617 80.6935L218.611 80.58L218.494 79.5869ZM226.243 78.7016L227.237 78.5881L227.12 77.595L226.126 77.7085L226.243 78.7016ZM226.864 83.9651L226.981 84.9583L227.975 84.8448L227.858 83.8517L226.864 83.9651ZM203.218 86.6664L202.225 86.7799L202.342 87.773L203.335 87.6595L203.218 86.6664ZM202.597 81.4029L202.48 80.4098L201.486 80.5233L201.604 81.5164L202.597 81.4029ZM210.446 80.5063L210.563 81.4994L211.557 81.3859L211.44 80.3928L210.446 80.5063ZM208.009 59.8495L209.003 59.736L208.886 58.7429L207.892 58.8564L208.009 59.8495ZM178.203 63.2545L178.086 62.2613L177.092 62.3748L177.21 63.368L178.203 63.2545ZM180.64 83.9112L179.646 84.0247L179.764 85.0178L180.757 84.9043L180.64 83.9112ZM188.39 83.0259L189.383 82.9124L189.266 81.9193L188.272 82.0328L188.39 83.0259ZM189.011 88.2894L189.128 89.2826L190.121 89.1691L190.004 88.1759L189.011 88.2894ZM165.364 90.9907L164.371 91.1042L164.488 92.0973L165.481 91.9838L165.364 90.9907ZM164.861 86.7203L172.61 85.835L172.376 83.8488L164.626 84.7341L164.861 86.7203ZM173.487 84.7284L168.133 39.3431L166.145 39.5701L171.499 84.9554L173.487 84.7284ZM167.022 38.4635L159.272 39.3488L159.507 41.335L167.256 40.4497L167.022 38.4635ZM160.383 40.2284L159.762 34.9649L157.775 35.1919L158.396 40.4554L160.383 40.2284ZM158.886 36.0715L182.532 33.3702L182.298 31.384L158.651 34.0853L158.886 36.0715ZM181.421 32.4906L182.042 37.7541L184.029 37.5271L183.408 32.2636L181.421 32.4906ZM182.918 36.6475L175.169 37.5328L175.403 39.519L183.153 38.6337L182.918 36.6475ZM174.293 38.6394L176.542 57.7072L178.529 57.4802L176.28 38.4124L174.293 38.6394ZM177.653 58.5868L207.459 55.1819L207.224 53.1956L177.418 56.6006L177.653 58.5868ZM208.335 54.0753L206.086 35.0075L204.099 35.2345L206.348 54.3023L208.335 54.0753ZM204.975 34.1279L197.126 35.0245L197.36 37.0107L205.209 36.1141L204.975 34.1279ZM198.237 35.9041L197.616 30.6406L195.629 30.8676L196.25 36.1311L198.237 35.9041ZM196.739 31.7472L220.386 29.046L220.151 27.0597L196.505 29.761L196.739 31.7472ZM219.275 28.1663L219.896 33.4298L221.883 33.2028L221.262 27.9393L219.275 28.1663ZM220.772 32.3232L213.023 33.2085L213.257 35.1947L221.007 34.3095L220.772 32.3232ZM212.146 34.3151L217.5 79.7004L219.487 79.4734L214.133 34.0881L212.146 34.3151ZM218.611 80.58L226.361 79.6948L226.126 77.7085L218.377 78.5938L218.611 80.58ZM225.25 78.8151L225.871 84.0786L227.858 83.8517L227.237 78.5881L225.25 78.8151ZM226.747 82.972L203.101 85.6733L203.335 87.6595L226.981 84.9583L226.747 82.972ZM204.212 86.5529L203.591 81.2894L201.604 81.5164L202.225 86.7799L204.212 86.5529ZM202.714 82.396L210.563 81.4994L210.329 79.5132L202.48 80.4098L202.714 82.396ZM211.44 80.3928L209.003 59.736L207.016 59.963L209.453 80.6198L211.44 80.3928ZM207.892 58.8564L178.086 62.2613L178.32 64.2476L208.126 60.8426L207.892 58.8564ZM177.21 63.368L179.646 84.0247L181.634 83.7977L179.197 63.141L177.21 63.368ZM180.757 84.9043L188.507 84.019L188.272 82.0328L180.523 82.9181L180.757 84.9043ZM187.396 83.1394L188.017 88.4029L190.004 88.1759L189.383 82.9124L187.396 83.1394ZM188.893 87.2963L165.247 89.9976L165.481 91.9838L189.128 89.2826L188.893 87.2963ZM166.358 90.8772L165.737 85.6137L163.75 85.8407L164.371 91.1042L166.358 90.8772Z" fill="black"/>
    <path d="M298.884 85.0107C292.91 84.4532 287.725 82.6637 283.328 79.642C279.003 76.5602 275.791 72.7118 273.691 68.0967C271.597 63.4152 270.802 58.4533 271.308 53.2109C271.813 47.9685 273.541 43.242 276.492 39.0313C279.449 34.7543 283.342 31.5355 288.172 29.3749C293.074 27.1542 298.512 26.3225 304.486 26.8801C310.46 27.4376 315.61 29.2572 319.934 32.339C324.331 35.3607 327.573 39.2454 329.661 43.9932C331.755 48.6747 332.549 53.6366 332.044 58.879C331.539 64.1214 329.811 68.8479 326.86 73.0586C323.915 77.2029 319.992 80.3854 315.09 82.6062C310.26 84.7667 304.858 85.5683 298.884 85.0107ZM299.46 79.0384C303.907 79.4535 307.856 78.7842 311.307 77.0306C314.758 75.277 317.512 72.7554 319.571 69.4658C321.702 66.116 322.972 62.3176 323.381 58.0706C323.797 53.7572 323.278 49.7584 321.825 46.0741C320.438 42.396 318.218 39.3766 315.163 37.016C312.115 34.5889 308.368 33.1679 303.92 32.7529C299.473 32.3378 295.521 33.0403 292.064 34.8602C288.613 36.6138 285.852 39.2018 283.781 42.6241C281.716 45.9801 280.476 49.8148 280.06 54.1281C279.644 58.4415 280.133 62.404 281.526 66.0158C282.92 69.6275 285.143 72.6137 288.198 74.9744C291.258 77.2687 295.012 78.6234 299.46 79.0384Z" fill="black"/>
    <path d="M283.328 79.642L282.745 80.4566L282.752 80.4615L282.759 80.4663L283.328 79.642ZM273.691 68.0967L272.777 68.5069L272.78 68.5128L273.691 68.0967ZM276.492 39.0313L277.311 39.6032L277.314 39.598L276.492 39.0313ZM288.172 29.3749L288.578 30.2872L288.583 30.2852L288.172 29.3749ZM319.934 32.339L319.351 33.1536L319.358 33.1585L319.365 33.1633L319.934 32.339ZM329.661 43.9932L328.745 44.3977L328.747 44.4035L329.661 43.9932ZM326.86 73.0586L327.675 73.6358L327.678 73.6305L326.86 73.0586ZM315.09 82.6061L315.496 83.5184L315.5 83.5165L315.09 82.6061ZM311.307 77.0306L310.856 76.1397L311.307 77.0306ZM319.571 69.4657L318.727 68.9311L318.723 68.9375L319.571 69.4657ZM321.825 46.0741L320.889 46.4291L320.892 46.4361L320.894 46.4432L321.825 46.0741ZM315.163 37.016L314.538 37.7986L314.544 37.8031L314.55 37.8075L315.163 37.016ZM292.064 34.8602L292.515 35.7511L292.521 35.7478L292.528 35.7444L292.064 34.8602ZM283.781 42.6241L284.632 43.146L284.636 43.1397L283.781 42.6241ZM281.526 66.0158L280.593 66.3778L281.526 66.0158ZM288.198 74.9744L287.584 75.7659L287.59 75.7704L287.596 75.7748L288.198 74.9744ZM298.98 84.0154C293.154 83.4717 288.136 81.7316 283.896 78.8177L282.759 80.4663C287.313 83.5957 292.666 85.4348 298.788 86.0061L298.98 84.0154ZM283.91 78.8275C279.721 75.8423 276.626 72.1286 274.601 67.6805L272.78 68.5128C274.956 73.2949 278.285 77.2781 282.745 80.4566L283.91 78.8275ZM274.604 67.6864C272.583 63.1668 271.814 58.3787 272.303 53.3038L270.312 53.118C269.791 58.5279 270.611 63.6636 272.777 68.5069L274.604 67.6864ZM272.303 53.3038C272.792 48.229 274.462 43.6683 277.31 39.6032L275.673 38.4594C272.62 42.8157 270.833 47.7081 270.312 53.118L272.303 53.3038ZM277.314 39.598C280.165 35.4748 283.913 32.3741 288.578 30.2872L287.765 28.4626C282.771 30.6968 278.733 34.0338 275.669 38.4646L277.314 39.598ZM288.583 30.2852C293.308 28.1445 298.569 27.3322 304.39 27.8754L304.582 25.8847C298.456 25.3129 292.84 26.1638 287.761 28.4646L288.583 30.2852ZM304.39 27.8754C310.212 28.4187 315.188 30.1865 319.351 33.1536L320.516 31.5245C316.031 28.328 310.709 26.4564 304.582 25.8847L304.39 27.8754ZM319.365 33.1633C323.614 36.0832 326.734 39.8245 328.745 44.3977L330.577 43.5888C328.412 38.6663 325.047 34.6381 320.502 31.5147L319.365 33.1633ZM328.747 44.4035C330.769 48.9231 331.537 53.7112 331.048 58.7861L333.039 58.9719C333.561 53.562 332.74 48.4263 330.574 43.583L328.747 44.4035ZM331.048 58.7861C330.559 63.8609 328.89 68.4216 326.041 72.4867L327.678 73.6305C330.731 69.2742 332.518 64.3818 333.039 58.9719L331.048 58.7861ZM326.045 72.4814C323.209 76.4723 319.429 79.5439 314.679 81.6958L315.5 83.5165C320.555 81.2269 324.621 77.9335 327.675 73.6358L326.045 72.4814ZM314.683 81.6939C310.032 83.7748 304.806 84.5591 298.98 84.0154L298.788 86.0061C304.91 86.5775 310.489 85.7586 315.496 83.5184L314.683 81.6939ZM299.364 80.0338C303.97 80.4636 308.114 79.7736 311.758 77.9214L310.856 76.1397C307.599 77.7948 303.845 78.4433 299.556 78.043L299.364 80.0338ZM311.758 77.9214C315.372 76.085 318.264 73.4378 320.418 69.994L318.723 68.9375C316.761 72.073 314.143 74.469 310.856 76.1397L311.758 77.9214ZM320.414 70.0004C322.637 66.5073 323.954 62.5553 324.377 58.1635L322.386 57.9777C321.99 62.0798 320.767 65.7246 318.727 68.9311L320.414 70.0004ZM324.377 58.1635C324.806 53.7079 324.272 49.5492 322.756 45.7051L320.894 46.4432C322.284 49.9676 322.788 53.8065 322.386 57.9777L324.377 58.1635ZM322.761 45.7191C321.31 41.8717 318.98 38.7001 315.777 36.2245L314.55 37.8075C317.455 40.0532 319.566 42.9203 320.889 46.4291L322.761 45.7191ZM315.788 36.2334C312.567 33.6687 308.628 32.1879 304.016 31.7575L303.824 33.7482C308.107 34.1479 311.663 35.5091 314.538 37.7986L315.788 36.2334ZM304.016 31.7575C299.404 31.3271 295.253 32.0529 291.599 33.976L292.528 35.7444C295.789 34.0277 299.542 33.3486 303.824 33.7482L304.016 31.7575ZM291.612 33.9694C287.989 35.8108 285.09 38.5316 282.925 42.1086L284.636 43.1397C286.614 39.872 289.237 37.4168 292.515 35.7511L291.612 33.9694ZM282.929 42.1023C280.776 45.6012 279.493 49.5854 279.064 54.0352L281.056 54.221C281.458 50.0441 282.655 46.359 284.632 43.1459L282.929 42.1023ZM279.064 54.0352C278.636 58.4846 279.138 62.6051 280.593 66.3778L282.46 65.6537C281.129 62.203 280.653 58.3983 281.056 54.221L279.064 54.0352ZM280.593 66.3778C282.052 70.1588 284.386 73.2937 287.584 75.7659L288.811 74.1829C285.901 71.9338 283.788 69.0962 282.46 65.6537L280.593 66.3778ZM287.596 75.7748C290.827 78.1967 294.764 79.6045 299.364 80.0338L299.556 78.043C295.261 77.6422 291.69 76.3407 288.799 74.174L287.596 75.7748Z" fill="black"/>
    <path d="M368.628 106.937L374.907 111.564L402.579 75.1939L396.299 70.5673L399.508 66.3493L421.889 82.8392C427.418 86.9122 430.803 91.1041 432.047 95.4148C433.29 99.7255 432.337 103.95 429.189 108.088C425.838 112.492 421.772 114.754 416.99 114.874C412.303 114.98 407.141 112.958 401.505 108.805L395.467 104.357L398.676 100.139L404.473 104.41C407.962 106.98 411.251 108.161 414.34 107.954C417.43 107.746 420.105 106.157 422.365 103.185C424.464 100.426 425.247 97.6913 424.714 94.9799C424.234 92.308 422.464 89.845 419.405 87.591L409.18 80.0578L381.509 116.428L387.789 121.055L384.579 125.273L365.418 111.155L368.628 106.937Z" fill="black"/>
    <path d="M368.628 106.937L369.233 106.142L368.428 105.548L367.823 106.344L368.628 106.937ZM374.907 111.564L374.302 112.36L375.107 112.953L375.712 112.157L374.907 111.564ZM402.579 75.1939L403.384 75.7871L403.989 74.9912L403.184 74.3981L402.579 75.1939ZM396.299 70.5673L395.494 69.9741L394.888 70.77L395.693 71.3631L396.299 70.5673ZM399.508 66.3493L400.114 65.5534L399.308 64.9603L398.703 65.7561L399.508 66.3493ZM432.047 95.4148L433.016 95.1396L432.047 95.4148ZM416.99 114.874L417.009 115.866L417.012 115.866L416.99 114.874ZM395.467 104.357L394.662 103.764L394.057 104.559L394.862 105.153L395.467 104.357ZM398.676 100.139L399.282 99.343L398.477 98.7498L397.871 99.5456L398.676 100.139ZM414.34 107.954L414.276 106.963L414.34 107.954ZM424.714 94.9799L423.722 95.1569L423.723 95.1649L423.725 95.1729L424.714 94.9799ZM409.18 80.0578L409.786 79.262L408.981 78.6688L408.375 79.4647L409.18 80.0578ZM381.509 116.428L380.704 115.835L380.098 116.631L380.903 117.224L381.509 116.428ZM387.789 121.055L388.594 121.648L389.199 120.852L388.394 120.259L387.789 121.055ZM384.579 125.273L383.974 126.068L384.779 126.662L385.385 125.866L384.579 125.273ZM365.418 111.155L364.613 110.562L364.008 111.358L364.813 111.951L365.418 111.155ZM368.022 107.733L374.302 112.36L375.513 110.768L369.233 106.142L368.022 107.733ZM375.712 112.157L403.384 75.7871L401.774 74.6008L374.102 110.971L375.712 112.157ZM403.184 74.3981L396.904 69.7714L395.693 71.3631L401.973 75.9898L403.184 74.3981ZM397.104 71.1604L400.313 66.9425L398.703 65.7561L395.494 69.9741L397.104 71.1604ZM398.903 67.1451L421.284 83.635L422.495 82.0433L400.114 65.5534L398.903 67.1451ZM421.284 83.635C426.723 87.6422 429.918 91.6708 431.078 95.6899L433.016 95.1396C431.688 90.5374 428.113 86.1822 422.495 82.0433L421.284 83.635ZM431.078 95.6899C432.221 99.6549 431.375 103.563 428.384 107.495L429.994 108.682C433.299 104.337 434.359 99.796 433.016 95.1396L431.078 95.6899ZM428.384 107.495C425.184 111.7 421.389 113.771 416.969 113.882L417.012 115.866C422.156 115.737 426.492 113.284 429.994 108.682L428.384 107.495ZM416.972 113.882C412.597 113.981 407.653 112.093 402.111 108.01L400.9 109.601C406.629 113.822 412.008 115.98 417.009 115.866L416.972 113.882ZM402.111 108.01L396.073 103.561L394.862 105.153L400.9 109.601L402.111 108.01ZM396.272 104.95L399.481 100.732L397.871 99.5456L394.662 103.764L396.272 104.95ZM398.071 100.935L403.868 105.205L405.079 103.614L399.282 99.343L398.071 100.935ZM403.868 105.205C407.47 107.86 410.993 109.173 414.405 108.944L414.276 106.963C411.509 107.149 408.453 106.1 405.079 103.614L403.868 105.205ZM414.405 108.944C417.85 108.712 420.775 106.928 423.171 103.779L421.56 102.592C419.435 105.386 417.01 106.78 414.276 106.963L414.405 108.944ZM423.171 103.779C425.396 100.854 426.303 97.8387 425.703 94.7869L423.725 95.1729C424.191 97.5439 423.533 99.9992 421.56 102.592L423.171 103.779ZM425.706 94.8028C425.167 91.8011 423.194 89.1405 420.01 86.7951L418.799 88.3868C421.735 90.5495 423.301 92.8148 423.722 95.1569L425.706 94.8028ZM420.01 86.7951L409.786 79.262L408.575 80.8537L418.799 88.3868L420.01 86.7951ZM408.375 79.4647L380.704 115.835L382.314 117.021L409.985 80.651L408.375 79.4647ZM380.903 117.224L387.183 121.85L388.394 120.259L382.114 115.632L380.903 117.224ZM386.984 120.461L383.774 124.679L385.385 125.866L388.594 121.648L386.984 120.461ZM385.185 124.477L366.024 110.36L364.813 111.951L383.974 126.068L385.185 124.477ZM366.224 111.749L369.433 107.531L367.823 106.344L364.613 110.562L366.224 111.749Z" fill="black"/>
    <path d="M270.171 89.668L275.146 90.2533L274.268 92.0091L273.975 96.984L273.097 100.788V104.593L272.804 108.69L270.171 118.639L270.463 127.711L269.293 132.686L268.122 137.953L266.366 143.806L264.903 148.196L262.269 147.611L261.099 146.733L256.709 143.514L252.027 140.002L249.979 138.539L249.393 137.661L248.515 135.612L243.541 131.808L240.614 128.589L240.029 125.955L238.566 123.322L237.98 120.98L236.81 117.761L236.517 111.909C235.113 103.246 235.932 95.2281 236.517 92.3018L239.444 86.1563C241.082 83.347 247.93 84.0103 251.149 84.6931L257.295 85.8637L265.488 88.2048L270.171 89.668Z" fill="#2B2A38" stroke="black" stroke-width="0.5"/>
    <path d="M115.364 237.158L113.901 235.11L115.95 233.939L118.291 232.476L120.925 232.183L124.144 231.598L125.899 233.647L129.119 235.402L133.801 236.573L139.654 236.866L143.165 237.451L139.654 241.255L137.898 245.937C137.898 245.937 136.727 250.327 136.434 250.62C136.142 250.912 133.508 250.62 133.508 250.62L129.411 249.156C129.411 249.156 127.07 247.693 126.485 247.693C125.899 247.693 124.729 248.279 124.729 248.279L119.461 248.571C119.461 248.571 116.242 249.449 115.95 249.156C115.657 248.864 115.95 245.937 115.95 245.937V243.304C115.755 242.231 115.423 240.026 115.657 239.792C115.891 239.558 115.56 237.939 115.364 237.158Z" fill="#2B2A38" stroke="black" stroke-width="0.5"/>
    <path d="M115.657 171.9L112.438 176.582L141.995 176.875L157.212 177.752H165.698C176.936 176.816 182.672 172.485 184.135 170.436L186.768 173.363L184.135 179.801L175.648 197.652L172.722 205.553L170.088 216.088L168.04 225.453L166.576 235.695L165.698 244.767L164.528 251.498V253.839L163.357 257.643V264.959C163.357 264.959 163.065 267.885 163.357 267.885C163.65 267.885 163.708 267.593 163.943 267.593C164.235 267.593 164.528 267.3 165.113 267.3C165.698 267.3 165.991 267.007 166.576 266.715C167.162 266.422 168.04 266.13 168.332 266.13H170.088H172.429C172.429 266.13 173.014 267.885 173.6 267.885C174.185 267.885 174.185 267.593 174.185 267.593C174.673 267.495 175.707 267.3 175.941 267.3C176.175 267.3 178.184 268.08 179.16 268.471L180.623 269.934L182.672 270.812L187.061 271.397L191.743 272.86L195.84 274.909L199.352 277.25L201.986 277.542L205.205 278.128L207.839 279.298L211.058 280.176L214.277 281.054L218.081 282.517L222.178 283.395L225.69 284.566L228.616 285.444L230.664 286.322L232.713 286.907V285.151L233.006 283.981L233.883 281.639L234.761 278.42L235.639 274.909L236.517 272.275L237.102 270.226L237.395 268.763L237.688 266.715L238.566 263.496L239.444 260.569L240.029 258.521L241.199 254.717L242.077 252.375L242.663 250.034L243.541 246.815L245.296 242.426L245.589 240.67L245.882 238.329L246.76 234.817L248.515 228.379L249.393 225.453L250.857 220.77L251.442 218.429L252.32 216.088L253.198 213.162L254.076 210.528L254.661 208.48L255.539 205.553L256.709 201.749L257.295 200.578L257.88 198.822L258.465 197.359L258.758 196.189L259.05 194.433L259.928 192.092L261.099 188.58L262.269 183.313L263.733 177.167L265.488 171.314L266.952 164.584L268.415 159.609L269.585 155.219L271.049 149.074H266.952L262.269 147.611L258.758 144.977L254.953 142.343L249.393 137.953L248.808 135.905L245.004 132.979L241.785 129.76C241.395 129.467 240.614 128.765 240.614 128.296C240.614 127.711 239.736 126.248 239.736 125.663C239.736 125.077 238.273 122.736 238.273 122.444C238.273 122.209 237.883 120.59 237.688 119.81L236.81 117.761V114.25V112.494H235.932L223.348 113.957L202.864 116.883L187.646 119.517L165.406 124.785L157.212 126.541L152.53 130.345L141.995 142.343L127.07 159.609L119.169 167.803L115.657 171.9Z" fill="#2D2C3A" stroke="black" stroke-width="0.5"/>
    <path d="M163.943 275.494L163.65 267.885L164.235 267.593L165.406 267.3L168.04 266.13H172.137L173.6 267.885C175.004 266.715 176.916 267.398 177.697 267.885L180.916 270.226L184.72 270.812L192.329 273.153L199.352 277.25L204.034 278.128L217.496 282.225L223.934 283.981L238.858 288.663L258.758 293.638L266.366 297.735L269.585 297.442L280.998 301.832L285.681 301.246L297.679 305.929C299.435 305.929 299.142 306.221 299.142 306.221C294.46 315.351 291.533 318.61 290.655 319.097L287.729 317.341L281.291 314.708L272.804 312.659L260.221 309.44L248.223 306.221L232.713 303.002L218.374 298.905L205.497 294.808L190.573 288.955L175.063 282.81H172.137C166.05 283.044 164.333 281.932 164.235 281.347L163.943 276.372V275.494Z" fill="#2B2A38" stroke="black" stroke-width="0.5"/>
    <path d="M109.219 178.045L112.438 176.582H115.364H124.436H134.093L141.702 176.875V179.216L140.824 187.702L139.946 202.042L138.776 215.21L137.02 227.209L134.093 236.573L129.996 235.695L125.899 233.647L124.144 231.598L118.291 232.476L113.901 235.11L111.56 228.379L109.219 215.21L107.463 203.505L106 189.458V183.313L106.585 180.679L107.463 179.216L109.219 178.045Z" fill="#2D2C3A" stroke="black" stroke-width="0.5"/>
    <path d="M153.115 177.46L141.995 176.875H141.702V179.508L141.117 183.898L140.824 187.41L140.239 195.603L139.654 202.919L139.068 212.577L137.02 226.916L134.093 236.573C135.264 236.573 138.483 236.768 139.946 236.866L143.165 237.744C150.189 226.038 152.725 192.677 153.115 177.46Z" fill="#EAE8F3" stroke="black" stroke-width="0.5"/>
    <path d="M252.612 174.826C252.027 174.826 248.223 169.851 248.223 170.436C248.223 171.022 247.637 171.022 247.637 171.022L246.174 171.314L240.614 173.948C240.614 173.948 239.151 174.533 238.858 173.948C238.566 173.363 239.346 172.387 239.151 171.9C239.151 171.9 237.395 172.192 237.102 171.607C236.81 171.022 237.629 170.729 237.395 170.729C237.161 170.729 236.907 170.534 236.81 170.436C236.712 170.339 236.634 170.085 237.102 169.851C237.395 169.851 237.395 169.559 238.273 168.973C239.151 168.388 238.566 168.973 238.858 168.681C239.151 168.388 239.444 168.388 239.736 168.095C239.97 167.861 239.834 167.803 239.736 167.803L240.029 167.51C240.419 167.413 241.258 167.159 241.492 166.925C241.726 166.691 241.98 166.632 242.077 166.632L243.541 166.047C243.541 166.047 244.711 165.462 244.418 165.169C244.126 164.876 242.663 161.365 242.663 161.365L241.785 160.779V159.901V159.316L242.077 159.024V158.731H242.663L243.541 159.316L244.126 159.609L244.711 159.316V159.024C244.418 158.926 243.775 158.672 243.541 158.438C243.248 158.146 244.126 157.853 244.711 157.853H245.589C245.823 157.853 246.662 158.243 247.052 158.438L247.345 159.316L248.223 160.194L248.808 161.657L249.393 162.243H249.979H250.271C250.369 162.145 250.564 161.891 250.564 161.657C250.564 161.365 251.442 161.657 252.612 161.072C253.081 160.838 253.003 160.779 252.905 160.779L253.198 159.901C253.295 159.901 253.549 159.843 253.783 159.609C254.076 159.316 254.661 159.609 254.661 159.316V158.438C254.661 158.204 254.368 158.438 254.661 158.146C254.953 157.853 255.305 158.146 255.539 158.146C255.773 158.146 255.831 158.536 255.831 158.731C256.222 158.926 257.06 159.316 257.295 159.316C257.529 159.316 257.392 158.731 257.295 158.438L256.709 158.146H257.88H258.465L259.05 158.438V159.316H259.343H259.928L260.221 159.609H260.806L261.099 159.901C261.099 159.901 261.392 160.487 261.099 160.779C260.806 161.072 260.162 160.779 259.928 160.779C259.694 160.779 259.636 161.17 259.636 161.365L259.343 161.95H258.758L258.465 163.12C258.465 163.12 258.758 163.12 259.05 163.413C259.343 163.706 253.198 167.803 253.49 168.681C253.783 169.559 254.368 169.851 254.368 169.851C254.758 170.339 255.597 171.314 255.831 171.314C256.066 171.314 256.319 171.9 256.417 172.192L256.124 172.778L255.831 173.363C255.929 173.655 256.183 174.299 256.417 174.533L256.709 174.826C256.709 174.826 257.002 175.411 256.709 175.704C256.417 175.997 255.831 175.411 255.831 175.411L255.246 175.704L254.368 175.411C254.368 175.411 254.661 175.509 254.076 175.704C253.674 175.838 253.134 174.96 252.835 174.397C252.905 174.613 252.901 174.826 252.612 174.826Z" fill="#EAE8F3" stroke="black"/>
    <path d="M259.343 187.995L260.806 188.287L259.05 193.262C259.05 193.262 253.836 191.936 255.246 192.384C256.656 192.833 256.513 195.288 253.783 195.311C253.783 195.311 252.306 191.759 251.734 193.262C251.163 194.766 248.704 196.337 248.808 192.97C248.808 192.97 244.711 193.262 244.418 193.555C244.126 193.848 246.174 194.726 246.174 194.726C247.813 194.96 246.467 197.067 245.589 197.359C244.711 197.652 242.077 194.433 241.785 194.433C241.492 194.433 241.492 194.726 241.492 194.726V195.896V197.359L240.907 198.237C240.907 198.237 240.907 199.993 240.614 199.993C240.321 199.993 239.736 199.525 239.736 198.823C239.736 198.12 239.541 199.31 239.444 199.993C239.444 199.993 238.858 200.286 238.566 199.993C238.273 199.7 239.151 196.189 238.858 196.189C238.566 196.189 236.712 196.774 236.225 196.189C236.459 199.232 233.591 198.237 232.128 197.359L229.201 199.408H228.323V198.53L228.909 197.067C228.909 197.067 230.372 196.189 230.079 195.896C229.786 195.603 229.201 195.896 229.201 195.603C229.201 195.311 236.225 190.921 234.761 190.629C233.298 190.336 235.639 189.458 235.932 189.165C236.225 188.873 234.761 187.995 234.761 187.995C234.527 185.42 236.615 186.532 237.688 187.41C238.858 185.771 238.566 187.995 238.858 188.287C239.151 188.58 240.321 188.873 240.614 188.58C240.907 188.287 240.907 185.068 240.907 185.068C242.077 183.43 243.15 184.581 243.541 185.361C243.541 185.361 242.955 187.995 243.248 188.287C243.541 188.58 248.436 187.117 248.808 187.117C249.18 187.117 247.637 185.946 247.93 185.654C248.223 185.361 248.984 184.015 249.686 184.483C250.388 184.951 251.192 187.061 251.442 187.117C251.692 187.173 256.669 186.894 256.709 187.117L257.88 187.41L259.343 187.995Z" fill="#EAE8F3" stroke="black"/>
    <path d="M282.169 90.8386C282.169 90.8386 275.438 90.2533 275.146 90.2533C274.853 90.2533 274.56 91.4238 274.56 91.4238L273.975 96.3987L273.097 101.081V105.763L272.804 108.69L271.341 114.835L270.171 118.639V122.444L270.463 127.418L269.878 130.93L268.708 135.32L267.83 138.831L266.074 144.392L265.196 147.611C265.196 147.611 264.903 148.489 265.488 148.489C266.074 148.489 270.756 149.366 270.756 149.366L272.512 149.659L276.609 150.537H280.413L282.462 150.83L283.632 150.537V149.952L283.339 145.855L283.632 141.758L284.803 136.198L285.681 128.004L286.559 121.858L288.314 115.128L289.778 110.153C289.778 110.153 292.119 91.4238 291.533 91.4238H288.314L282.169 90.8386Z" fill="#ECEAF5" stroke="black" stroke-width="0.5"/>
    <path d="M401.858 260.569L402.736 258.814L400.395 257.058L397.469 254.717L395.42 252.961L393.079 251.205L390.153 249.449L385.763 246.523L382.544 244.182L379.618 242.133L378.155 240.963L374.936 238.621L374.35 240.085L373.472 242.718L371.717 246.523L370.546 249.156L368.79 252.668L367.327 255.595L366.156 257.936L364.986 260.277L363.523 263.203L362.937 265.252L361.474 269.056L360.304 271.69L359.133 274.323L357.962 276.957L357.085 280.469L356.207 282.517L355.036 286.614L353.866 291.004L354.743 291.589L357.377 292.467L358.84 293.638C358.84 293.638 360.011 294.808 360.304 294.808C360.596 294.808 361.182 293.93 361.474 293.93C361.767 293.93 363.23 294.223 363.23 294.223L365.864 295.686L367.912 297.735C367.912 297.735 369.961 299.783 370.253 299.783C370.546 299.783 372.009 298.613 372.009 298.613L375.521 295.686L377.569 293.052L379.91 289.541L384.007 284.273L386.934 280.469L389.86 276.079L394.542 269.934L397.469 266.13L400.395 262.618L401.858 260.569Z" fill="#E00326" stroke="black" stroke-width="0.5"/>
    <path d="M360.011 235.988L362.352 229.55L372.887 236.866L374.936 238.621L374.643 239.499L373.472 242.426L372.594 244.767L370.839 248.571L369.083 252.375L367.327 255.595L365.571 259.106L363.523 263.203L362.352 266.715L360.889 270.519L359.133 274.323L357.962 276.957L356.792 281.347L355.914 283.395L355.329 286.029L354.451 288.663L353.866 291.004H350.061L348.013 289.833L346.55 289.541H343.623V282.225V277.25L347.427 266.715L351.232 256.765L354.451 249.156L358.84 239.207L360.011 235.988Z" fill="#E4E7F0" stroke="black" stroke-width="0.5"/>
    <path d="M346.842 289.541H345.086V290.126L345.379 292.174C345.379 292.174 345.672 294.808 345.672 295.101C345.672 295.393 344.794 298.027 344.794 298.027L343.916 301.246L343.038 303.295C343.038 303.295 342.745 304.758 343.038 304.758C343.331 304.758 364.108 312.074 364.401 312.367C364.693 312.659 364.986 312.074 364.986 312.074L365.571 310.903L366.449 308.855L367.912 305.636L369.083 303.002L369.961 301.832C369.961 301.832 370.546 300.661 370.839 300.368C371.131 300.076 370.253 299.783 370.253 299.783L368.79 298.613L366.742 296.564L365.278 295.393L362.937 294.223L361.474 293.93L360.011 294.808L358.84 293.638L357.377 292.467L355.036 291.589L353.573 291.004H352.402H350.061L348.305 289.833L346.842 289.541Z" fill="#2D2C3A" stroke="black" stroke-width="0.5"/>
    <path d="M340.697 139.417C340.697 139.417 320.797 126.248 320.212 126.248C319.627 126.248 317.871 127.418 317.871 127.418L316.408 128.589L315.237 129.76L310.848 132.979L305.873 136.198L300.898 140.002L297.386 142.636L290.363 147.025L285.095 149.952L282.462 150.83L280.998 150.537H276.901L273.097 149.659L271.049 149.366L268.708 158.438L266.659 165.754L264.903 172.778L263.147 178.923L261.684 185.361L261.099 188.873L259.05 194.433L258.465 197.359L256.124 203.212L254.661 208.187L253.198 213.162L251.734 217.551L250.564 221.356L249.686 224.282L248.223 229.257L247.345 232.769L245.882 238.329L245.296 242.133L243.833 245.937L242.955 248.864L242.077 252.376L240.614 256.472L238.858 262.618L237.98 265.837L237.395 268.471L237.102 270.519L235.932 274.031L235.347 276.372L234.469 279.591L233.591 282.517L232.713 284.859V287.2L242.663 289.541L250.857 291.882L259.05 293.638L266.366 297.735L269.585 297.442L275.731 300.076L280.998 301.832L285.388 301.246L299.142 306.221L301.483 302.124L303.824 298.32L305.873 294.223L307.921 290.419L312.603 280.762L315.822 272.568L317.578 268.763L319.627 263.203L321.383 257.936L323.138 252.668L324.894 248.279L326.65 243.889L330.162 236.28L332.503 231.305L333.673 227.501L334.844 224.575L336.6 220.77L337.77 216.381V209.943L336.6 207.016L340.697 207.602C343.272 212.986 349.964 220.185 352.988 223.112L361.767 228.964L374.35 238.036L382.252 244.182L395.42 252.961C395.42 252.961 402.444 259.106 402.736 258.521C403.029 257.936 402.444 255.302 402.444 255.302L401.566 252.961L400.395 246.815L398.054 236.573L395.42 225.16L393.665 216.966L391.616 207.602L389.275 197.945L386.934 188.58L383.422 178.338L380.788 171.9L379.325 169.559L372.302 162.243L360.889 153.756L355.621 149.659L340.697 139.417Z" fill="#E00326" stroke="black" stroke-width="0.5"/>
    <path d="M285.095 180.386C285.095 180.386 283.925 178.045 283.339 178.045C282.754 178.045 280.413 179.508 280.413 179.508L278.072 180.971C278.072 180.971 278.072 181.849 277.487 181.849C276.901 181.849 276.609 181.264 276.609 181.264H276.023L275.731 180.386V180.094L275.146 179.508H273.682C273.097 179.508 273.682 178.923 273.682 178.923L275.146 178.045L276.901 176.289L278.95 175.119C278.95 175.119 280.413 173.948 280.413 173.363C280.413 172.778 278.95 171.607 278.95 171.607L277.779 170.144L276.901 168.973C276.901 168.973 276.023 167.217 276.023 166.925C276.023 166.632 276.609 166.925 276.609 166.925L278.657 165.754V165.169C278.657 165.169 278.365 164.584 278.95 164.584C279.535 164.584 280.413 165.754 280.413 165.754L283.047 168.388C283.047 168.388 284.51 170.144 285.095 170.144C285.681 170.144 288.9 167.803 288.9 167.803C289.485 167.315 290.773 166.34 291.241 166.34H292.411C292.411 166.34 292.997 166.047 293.289 166.34C293.582 166.632 293.289 166.925 293.289 166.925L292.411 167.803C292.411 167.803 292.119 168.095 292.411 168.388C292.704 168.681 294.46 168.095 294.46 168.388C294.46 168.681 294.752 168.973 294.46 169.266C294.167 169.559 288.9 174.533 288.9 175.119V177.46C288.9 178.045 292.411 182.435 292.411 182.435C291.475 185.946 288.314 185.068 286.851 184.191L285.973 182.727L285.095 180.386Z" fill="#281220" stroke="black"/>
    <path d="M289.485 211.536L288.314 209.78L286.851 207.439L285.973 205.683L284.803 204.22L283.925 203.05C283.535 202.562 282.403 201.469 280.998 201.001C280.296 200.767 280.706 200.708 280.706 200.416V199.538C280.706 199.245 281.291 199.538 281.291 199.538L282.462 198.367C282.93 198.133 283.047 197.88 283.047 197.782L283.339 197.197C283.339 197.197 283.339 196.904 283.047 196.904C282.754 196.904 283.047 196.319 282.754 196.319H281.876L280.706 196.904C280.706 196.904 279.828 197.782 279.535 197.782H278.95H277.779C277.487 197.782 276.609 196.611 276.609 196.319C276.609 196.026 274.853 194.856 274.853 194.856L272.512 193.392L269.878 191.929L267.244 190.759L265.781 189.881L265.488 189.295C265.586 189.003 265.488 188.125 265.488 188.125C265.488 188.125 265.781 187.832 265.488 187.54C265.196 187.247 265.196 187.54 264.903 187.54H263.733C263.44 187.54 263.733 188.125 263.733 188.125V189.003C263.733 189.295 263.147 189.295 263.147 189.295H262.269C261.977 189.295 260.806 192.924 260.806 193.392C260.806 193.861 260.514 193.978 260.514 193.978L259.928 195.148V195.734C259.928 195.734 260.514 196.904 260.806 196.904H262.269C262.855 196.904 262.855 196.319 263.147 195.734C263.44 195.148 263.44 195.148 263.733 195.148C263.967 195.148 264.611 194.563 264.611 194.856C264.611 195.148 264.903 195.734 264.903 195.734C265.001 196.026 265.137 196.67 264.903 196.904C264.611 197.197 264.611 198.367 264.611 198.66V198.66C264.611 198.953 264.903 199.83 264.903 199.83H265.488C265.488 199.83 266.659 199.83 266.659 199.538V197.782V195.734C266.659 195.441 267.244 195.148 267.537 195.148C267.83 195.148 269.293 196.904 269.293 196.904L272.512 198.953C272.512 198.953 274.268 201.001 273.975 201.294C273.682 201.586 272.804 202.172 272.804 202.172L270.463 203.342C270.463 203.342 270.171 203.927 270.171 204.22C270.171 204.513 270.756 204.805 270.756 204.805L272.804 204.22C272.804 204.22 275.146 202.757 275.146 203.05C275.146 203.342 274.853 204.805 274.853 204.805C274.853 204.805 274.268 206.854 274.56 206.854C274.853 206.854 276.316 207.146 276.609 206.854C276.901 206.561 277.194 205.098 277.487 205.098C277.779 205.098 279.828 206.269 279.828 206.269L281.291 207.439C281.291 207.439 285.388 211.243 285.388 211.536C285.388 211.829 285.681 213.292 285.973 213.292H286.559C286.851 213.292 286.266 212.121 286.559 212.121C286.851 212.121 287.436 212.999 287.729 212.707C288.022 212.414 288.022 210.951 288.314 210.951C288.607 210.951 290.07 212.999 290.07 212.707C290.07 212.414 289.485 211.536 289.485 211.536Z" fill="#281220" stroke="black"/>
    <path d="M294.167 92.0091C294.167 92.0091 291.826 91.4238 291.533 91.4238C291.241 91.4238 291.533 94.0576 291.533 94.0576L291.241 97.8619L290.363 105.178L289.485 111.031L288.022 116.298L286.559 121.566L285.973 125.955L285.388 130.052L284.803 135.027L284.217 138.831L283.632 140.88L283.339 144.392V146.44L283.632 150.537L285.681 149.659L292.119 146.147L295.923 143.514L301.19 139.709L305.287 136.783L309.677 133.857L313.189 131.223L315.822 129.174L318.749 126.833L320.505 126.248L321.383 124.492L322.846 121.566L324.309 116.298L325.48 113.372L326.065 109.275L325.772 102.252V99.9104V96.984C326.006 95.3452 323.919 94.3502 322.846 94.0576L319.919 93.765H315.237L308.799 93.4723L303.239 92.887L299.142 92.5944L294.167 92.0091Z" fill="#E00428" stroke="black" stroke-width="0.5"/>
    <path d="M347.558 474.004C347.854 473.704 349.766 462.171 349.766 461.871C349.766 461.571 347.263 461.403 347.263 461.403L343.125 461.103L341.647 461.403H338.1H333.667L330.121 461.703L323.323 462.003H313.57L306.181 462.303L302.93 462.603L299.383 462.303L285.492 461.703H279.286L275.443 461.403L266.872 461.103H251.208H248.253L243.524 460.503L241.159 459.903H238.795L229.633 459.003L218.106 457.203L209.831 455.703L202.146 454.503L196.827 453.303L189.142 451.503L182.344 450.303L172.887 449.103L165.498 446.403L160.474 445.203L154.563 443.403L146.583 440.703L132.396 435.602L128.554 434.102L127.076 433.202L122.643 430.202L116.732 426.602L111.412 423.602L107.864 421.502L105.501 420.002L101.659 417.002L96.9299 414.002L91.9055 410.401L87.1767 407.101L80.379 402.301L71.808 396.001L67.0791 391.501L60.2814 385.201L57.917 380.1L57.3259 380.4L54.9615 381.901L53.1882 383.101L51.4149 385.201L49.0504 386.701V388.201L55.5526 396.301L76.2412 411.902L80.9701 414.902L97.2254 425.102C97.2254 425.102 112.89 435.302 115.845 436.502L117.323 437.102L163.725 452.703L205.693 464.403L233.179 471.604H234.953L269.532 475.804L284.014 477.604C284.014 477.604 329.234 477.904 331.303 477.604C333.372 477.304 335.441 474.604 337.214 474.004C338.987 473.404 347.263 474.304 347.558 474.004Z" fill="#FBFBFB" stroke="black" stroke-width="0.5"/>
    <path d="M366.178 415.802C366.473 415.202 373.567 396.901 373.567 396.901L372.385 396.301L368.838 395.701L364.7 394.501L361.745 393.001L358.789 389.701C358.789 389.701 354.651 384.601 354.06 384.601H352.287C351.696 384.601 350.809 383.401 350.809 383.401L347.558 380.7L341.647 376.2L338.987 374.4L332.189 369.6L328.643 367.2L323.914 363.6L320.367 361.2L314.752 357.3L308.545 353.7L298.792 349.199L288.152 342.899L282.832 339.599L278.103 336.299L270.419 332.999L262.735 329.399L257.415 327.599L251.208 323.699L248.548 322.499L244.41 321.298L243.228 320.398L242.046 320.098L240.273 319.798V320.098V320.398L239.386 326.999L238.499 332.399L237.908 335.399L236.431 341.399L234.953 346.199L233.475 350.399L231.997 356.1L231.111 361.2L230.224 364.2L226.973 372.9L226.38 373.8L235.248 375.6L252.095 378L257.415 379.2C257.415 379.2 258.597 379.5 259.484 379.5C260.37 379.5 261.552 379.2 261.552 379.2L265.395 378L267.759 377.1L269.532 376.2H270.715H274.852C275.443 376.2 276.921 377.1 276.921 377.1L286.379 381.901L301.452 389.701L320.367 398.401L337.509 406.201C337.509 406.201 362.04 415.802 362.631 415.802C363.222 415.802 365.882 416.402 366.178 415.802Z" fill="#2C2B39" stroke="black" stroke-width="0.5"/>
    <path d="M98.4077 287.097C98.1121 287.097 93.3833 289.797 93.3833 289.797L93.6788 302.698L97.8166 300.898L101.954 300.598H126.781L143.332 300.898C143.332 300.898 153.38 300.898 153.971 300.598C154.563 300.298 157.518 299.398 158.109 299.398C158.7 299.398 172 304.498 172 304.498L179.685 305.998L188.551 308.098L198.009 310.198L218.106 314.698L230.815 317.698L239.386 319.798H240.273L243.228 320.398L244.41 321.298L247.662 322.198L251.504 323.999L257.415 327.599L264.212 329.999L278.103 336.299L285.197 341.099L293.472 346.199L299.974 349.799L308.545 353.7L311.205 355.2L315.934 358.2L325.983 365.1L336.327 372.6L344.012 378L352.287 384.601C352.287 384.601 353.469 384.301 354.06 384.601C354.651 384.901 361.449 392.701 361.449 392.701L364.109 394.201L367.951 395.401L372.089 396.301L373.567 396.901C373.567 396.901 378 387.601 378 386.101C378 384.601 372.976 382.501 372.976 382.501H371.202C370.611 382.501 368.247 380.701 367.951 380.4C367.656 380.1 366.769 378 366.178 377.7C365.587 377.4 364.405 378 363.814 378C363.222 378 363.518 376.8 362.927 376.5C362.336 376.2 361.449 375.3 361.449 375.3L356.425 371.4L353.469 369L350.809 366.9L347.558 364.5L341.943 360L337.805 357L334.258 354.3L328.643 350.699L324.505 348.299L320.663 345.899H319.481L316.525 344.099L312.092 341.699L302.634 337.199L294.063 333.599L283.128 329.099L277.512 326.999L275.148 326.099L265.395 322.499L250.321 317.398L235.248 312.598L220.471 308.098L204.511 303.598L182.049 297.598L174.956 295.798L164.316 293.097L151.312 291.897L143.332 291.297L124.712 289.497L112.89 288.597L106.979 287.997L101.068 287.397C101.068 287.397 98.7032 287.097 98.4077 287.097Z" fill="#FBFBFB" stroke="black" stroke-width="0.5"/>
    <path d="M205.1 402.901L205.987 400.201L160.768 381.901L148.945 373.2L144.512 370.8C144.512 370.8 143.625 370.8 143.625 369.6C143.625 368.4 145.399 359.7 146.877 358.8C148.354 357.9 158.108 364.2 158.108 364.2L178.501 369.6L199.485 371.7H211.602L226.38 373.8L229.04 367.5L230.518 363.3L232.882 352.2L235.542 344.099L238.202 334.799L239.384 327.299L240.271 319.798L239.384 319.498L223.425 315.598L204.214 311.098L185.298 306.898L171.998 304.198L165.792 301.798C165.792 301.798 159.29 299.098 158.108 299.098C156.925 299.098 153.97 300.298 153.97 300.298L143.034 300.598L129.143 300.298H116.73H109.341H101.953L97.8149 300.598L95.1549 301.798L93.6772 302.398V314.698L92.1994 319.498L92.7905 323.099L91.6083 326.999L91.0172 328.199L90.7216 331.799L90.1305 333.599L89.5394 335.399L88.3572 337.499L86.5839 340.499V342.899C86.5839 343.199 84.8106 347.399 84.8106 347.399L78.3084 355.8L74.1707 361.8L69.7374 366.3L66.7819 369.6L61.462 375.3L60.2798 378.3L57.9153 380.1L58.2109 381.301L60.2798 385.201L67.373 391.801L71.8063 396.601L91.9038 410.702L101.657 417.002L106.681 420.902L121.459 429.602L127.961 434.102L139.783 438.302L149.537 441.903L158.108 444.603L165.496 446.403L172.59 449.103L183.525 450.603L189.436 451.503L190.323 449.403L191.209 444.903L192.096 441.603L193.869 437.402L195.643 432.902L196.825 428.402L197.712 424.802L199.189 421.502C199.288 420.302 199.189 418.303 199.189 418.063C199.189 417.823 200.372 414.063 200.569 413.263L204.115 405.901L205.1 402.901Z" fill="#E00428" stroke="black" stroke-width="0.5"/>
    <path d="M93.3832 290.697V289.797L91.9055 290.397L88.95 289.197L87.1766 288.597L84.5167 287.697H81.5612C81.5612 287.697 81.2656 287.097 79.7878 287.697C78.3101 288.297 38.7061 377.1 39.0016 378.3C39.2972 379.5 48.1638 385.5 48.1638 385.5C48.1638 385.5 48.4593 386.7 49.346 386.7C50.2326 386.7 51.4148 385.2 51.4148 385.2L52.8926 383.1L54.6659 381.9L57.0303 380.4L60.2814 378.3L61.4636 375.3L63.828 372.6L67.373 369L69.4435 366.6L74.1724 362.1L77.719 356.399L83.3345 349.199L86.29 344.999V340.799L89.2455 336.299L90.7233 331.799V328.498L91.6099 327.298L92.7921 323.398L92.201 319.798L93.3832 314.998V301.497V299.097V298.497V297.597L93.3833 292.797L93.3832 291.597V290.697Z" fill="black" stroke="black" stroke-width="0.5"/>
    <path d="M91.0188 345.899L86.5839 343.199L86.29 344.399L85.9944 345.899L84.8122 347.399L86.29 348.899L89.8366 351.9L94.2699 353.7L97.8165 354L100.181 353.1L101.659 353.7L103.728 354H107.274L108.752 354.3L110.525 355.8L113.185 356.1L115.845 355.8L120.279 357.9H124.416L125.598 357.3L126.485 356.1V354.9L125.007 353.7L122.052 352.8L119.096 352.5L117.323 352.8L114.663 353.1L111.412 352.8L109.343 351.9L107.274 351.599L103.728 351.299L100.772 350.699L98.4076 349.499H96.9299L95.7477 348.599L91.0188 345.899Z" fill="black" stroke="black"/>
    <path d="M86.8811 345.899L86.29 346.799L86.5856 347.399L87.4722 348.299C87.9648 348.599 89.0091 349.199 89.2455 349.199C89.482 349.199 89.9352 349.999 90.1322 350.399L91.3144 351.299L93.9744 351.9C94.9595 352.2 96.9299 352.86 96.9299 353.1C96.9299 353.4 97.8165 352.8 98.1121 352.5C98.3485 352.26 98.4076 351.8 98.4076 351.6L98.1121 351.299L96.9299 350.699L95.7477 350.399L92.4966 348.899L90.4277 347.399L88.0633 345.899H86.8811Z" fill="#E00428" stroke="black"/>
    <path d="M267.759 368.1C267.759 368.1 267.759 369 267.463 369C267.168 369 266.872 368.1 266.577 367.8C266.281 367.5 264.508 366.3 264.508 366.3L262.735 363.9C262.735 363.9 262.439 363 262.144 363C261.848 363 262.439 363.3 262.144 363.6C261.848 363.9 261.552 363.6 261.552 363.6C261.552 363.6 261.257 361.8 261.257 361.5C261.257 361.2 260.075 359.7 260.075 359.7L259.188 358.8C259.188 358.8 258.006 357.3 257.71 357.3C257.415 357.3 250.913 361.5 250.913 361.5L248.844 360.9H247.366C247.366 360.9 246.479 361.2 246.184 360.9C245.888 360.6 247.957 357.6 247.957 357.3C247.957 357 246.775 358.2 246.479 358.2C246.184 358.2 245.888 357.6 245.888 357.6V355.8C245.888 355.8 245.593 354 245.888 353.7C246.184 353.4 247.957 352.5 247.957 352.5L249.73 351.299L251.799 350.399C251.799 350.399 252.981 349.499 252.981 349.199C252.981 348.899 249.139 344.699 249.139 344.699C249.139 344.699 248.844 343.199 248.548 342.899C248.253 342.599 246.775 342.599 246.775 342.599C246.775 342.599 246.184 341.699 246.184 341.399C246.184 341.099 247.957 340.199 247.957 339.899C247.957 339.599 247.661 339.299 247.661 338.999C247.661 338.699 248.548 337.499 248.548 337.199C248.548 336.899 248.253 335.399 248.253 335.399V332.999C248.253 332.399 251.208 336.599 251.504 336.599C251.799 336.599 252.39 336.299 252.39 336.599C252.39 336.899 252.095 337.499 252.39 337.799C252.686 338.099 253.868 338.399 254.164 338.099C254.459 337.799 255.05 336.599 255.346 336.899C255.641 337.199 258.006 341.699 258.006 341.699C258.006 341.699 259.779 344.699 260.075 344.699C260.37 344.699 260.666 344.099 260.666 344.099C260.666 344.099 259.779 342.599 260.075 342.599C260.37 342.599 261.848 345.599 262.144 345.599C262.439 345.599 263.917 344.699 263.917 344.699L266.577 343.199C266.577 343.199 268.941 341.699 269.237 341.699C269.532 341.699 270.715 341.483 271.01 341.699C271.306 341.916 270.715 342.464 271.306 342.599C271.897 342.734 273.079 341.699 273.079 341.699C273.079 341.699 274.852 340.799 275.148 340.799C275.443 340.799 275.443 341.399 275.443 341.399L274.852 341.699C274.852 341.699 273.966 342.299 273.966 342.599C273.966 342.899 274.852 342.299 275.148 342.599C275.443 342.899 275.148 343.199 275.148 343.199C275.148 343.199 271.601 345.599 271.897 345.599C272.192 345.599 274.557 343.799 274.852 344.099C275.148 344.399 274.852 344.699 274.852 344.699C274.852 344.699 271.601 347.099 271.897 347.099C272.192 347.099 273.67 345.899 273.966 345.899C274.261 345.899 274.261 346.499 273.966 346.799C273.67 347.099 267.759 350.999 267.759 351.299V352.2C267.759 352.5 267.168 352.5 267.168 352.8V354.3C267.168 354.6 267.463 354.6 267.463 354.6C267.463 354.6 268.35 354.3 268.35 354.6C268.35 354.9 267.759 355.5 267.759 355.5L271.897 363C271.897 363 273.374 364.5 273.079 364.8C272.783 365.1 273.079 365.1 272.783 365.4C272.488 365.7 272.192 365.1 271.897 364.8C271.601 364.5 270.123 364.8 270.123 364.8C270.123 364.8 269.237 365.4 269.237 365.7V367.5C269.237 367.8 268.646 367.8 268.35 367.8C268.055 367.8 267.168 366 266.872 366.3C266.577 366.6 267.759 368.1 267.759 368.1Z" fill="white" stroke="black"/>
    <path d="M192.984 452.403L189.436 451.503V451.203L189.732 450.903L190.029 450.003L190.323 448.203L191.209 444.003L191.8 441.903L192.687 439.803L194.46 435.602L195.643 432.602L196.531 429.902L197.122 427.502L197.712 424.502L198.303 422.702L198.598 421.202L199.189 418.202L199.485 416.702L200.076 414.902L200.372 413.102L202.145 409.802L203.623 407.101L205.987 400.201L211.309 402.601L258.301 419.702H262.144H267.464L277.512 422.102L299.088 428.102L312.092 431.402C312.092 431.402 353.174 442.803 353.174 443.703C353.174 444.603 349.627 461.703 349.627 461.703L346.671 461.403L342.829 461.103L338.1 461.403H332.189L324.801 461.703L302.93 462.303L288.743 461.703L277.512 461.403L269.237 461.103H264.804H256.233H248.548L241.159 459.903L229.633 459.003L222.244 457.803L213.377 456.303L202.146 454.503L192.984 452.403Z" fill="#2C2B39" stroke="black" stroke-width="0.5"/>
    <path d="M232.884 447.303C233.179 447.303 235.248 449.403 235.544 449.403C235.839 449.403 232.982 441.003 231.406 437.702C231.406 437.702 231.702 436.802 231.406 436.502C231.111 436.202 230.224 436.802 230.224 436.502C230.224 436.202 229.633 435.002 229.633 434.702C229.633 434.402 237.908 429.002 237.908 428.702C237.908 428.402 237.022 427.802 237.022 427.502C237.022 427.202 239.09 425.102 239.09 425.102C239.09 425.102 239.386 424.202 239.09 424.052C238.795 423.902 237.908 424.502 237.908 424.052C237.908 423.602 239.682 422.702 239.682 422.402C239.682 422.102 238.795 421.802 238.499 421.802C238.204 421.802 235.106 424.052 234.953 423.902C234.8 423.752 235.248 423.002 234.953 423.002H232.884L227.859 425.702C227.859 425.702 226.973 426.602 226.677 426.602C226.382 426.602 223.722 424.052 223.722 424.052L222.835 422.402L221.357 419.402C221.357 419.402 220.175 417.302 219.88 417.302C219.584 417.302 217.811 417.902 217.515 417.902C217.22 417.902 216.628 416.702 216.628 416.702C216.628 416.702 212.786 413.402 212.491 413.402C212.195 413.402 213.377 417.302 213.082 417.302C212.786 417.302 210.126 416.702 209.831 416.702C209.535 416.702 208.944 417.602 208.944 417.902C208.944 418.202 210.717 419.102 210.717 419.402C210.717 419.702 209.831 420.302 209.831 420.302C209.831 420.302 209.535 421.202 209.831 421.202C210.126 421.202 212.491 420.002 212.491 420.302C212.491 420.602 209.831 422.402 209.831 422.402C209.831 422.402 209.649 423.752 209.831 423.902C210.013 424.052 212.195 423.752 212.491 423.902C212.786 424.052 213.082 426.602 213.082 426.602C213.082 426.602 216.924 431.102 216.628 431.102C216.333 431.102 208.944 436.202 208.944 436.502V439.802C208.944 440.103 212.195 439.502 211.9 439.802C211.604 440.103 208.944 443.103 208.944 443.403C208.944 443.703 213.082 443.403 213.082 443.403L217.515 441.003C217.515 441.003 221.062 439.802 221.357 439.802C221.653 439.802 222.244 440.703 222.244 441.003C222.244 441.303 221.357 441.903 221.357 442.203C221.357 442.503 222.54 441.903 222.835 442.203C223.131 442.503 224.608 443.703 224.608 444.003V446.403C224.608 446.703 225.199 445.503 225.495 445.503C225.791 445.503 229.337 453.003 229.633 452.703C229.928 452.403 229.337 449.403 229.633 449.403C229.928 449.403 231.111 451.803 231.406 451.803C231.702 451.803 232.293 451.503 232.293 451.203V448.203C232.293 448.203 232.588 447.303 232.884 447.303Z" fill="white" stroke="black"/>
    <g clip-path="url(#clip0)">
        <path d="M142 55.9781L147.562 67.2485L160 69.0563L151 77.8286L153.124 90.2164L142 84.368L130.876 90.2164L133 77.8286L124 69.0563L136.438 67.2485L142 55.9781Z" fill="#EFCE4A"/>
    </g>
    <g clip-path="url(#clip1)">
        <path d="M249 36.9781L254.562 48.2485L267 50.0563L258 58.8286L260.124 71.2164L249 65.368L237.876 71.2164L240 58.8286L231 50.0563L243.438 48.2485L249 36.9781Z" fill="#EFCE4A"/>
    </g>
    <g clip-path="url(#clip2)">
        <path d="M360 56.9781L365.562 68.2485L378 70.0563L369 78.8286L371.124 91.2164L360 85.368L348.876 91.2164L351 78.8286L342 70.0563L354.438 68.2485L360 56.9781Z" fill="#EFCE4A"/>
    </g>
    <defs>
        <clipPath id="clip0">
            <rect width="36" height="36" fill="white" transform="translate(124 55.0973)"/>
        </clipPath>
        <clipPath id="clip1">
            <rect width="36" height="36" fill="white" transform="translate(231 36.0973)"/>
        </clipPath>
        <clipPath id="clip2">
            <rect width="36" height="36" fill="white" transform="translate(342 56.0973)"/>
        </clipPath>
    </defs>
</svg>
