<svg width="452" height="452" viewBox="0 0 452 452" fill="none" xmlns="http://www.w3.org/2000/svg">
    <mask id="mask0" mask-type="alpha" maskUnits="userSpaceOnUse" x="0" y="0" width="452" height="452">
        <path fill-rule="evenodd" clip-rule="evenodd" d="M451.112 201.827L249.235 451.124L7.14895e-06 249.297L201.877 -2.0766e-05L451.112 201.827Z" fill="white"/>
    </mask>
    <g mask="url(#mask0)">
        <path fill-rule="evenodd" clip-rule="evenodd" d="M377.347 254.348C375.745 255.568 374.4 260.766 375.187 263.095C376.495 260.084 376.677 257.16 377.347 254.348ZM112.514 328.433C110.785 327.006 109.524 325.176 108.209 323.393C107.943 323.032 107.63 322.631 107.203 323.04C106.85 323.378 107.233 323.71 107.487 323.979C108.067 324.595 108.785 325.058 109.277 325.781C110.642 327.787 111.888 329.894 113.844 331.428C114.158 331.675 114.399 332.243 114.857 331.826C115.202 331.511 115.046 330.93 114.787 330.642C114.082 329.858 113.279 329.163 112.514 328.433ZM143.532 355.11C143.803 355.445 144.088 355.764 144.564 355.775C144.835 355.781 145.145 355.747 145.181 355.43C145.199 355.277 145.025 355.035 144.872 354.939C142.258 353.307 139.634 351.69 137.011 350.072C136.739 349.904 136.38 349.674 136.152 349.97C135.837 350.379 136.259 350.648 136.542 350.854C138.423 352.218 140.177 353.8 142.488 354.447C142.914 354.566 143.288 354.725 143.532 355.11ZM146.485 356.188C146.536 357.043 146.777 357.313 147.087 357.537C149.333 359.154 152.088 359.87 154.277 361.589C154.357 361.652 154.471 361.686 154.574 361.701C154.945 361.755 155.4 362.281 155.666 361.703C155.876 361.25 155.39 360.996 155.061 360.713C152.598 358.593 149.296 358.176 146.485 356.188ZM350.035 130.454C347.771 126.789 344.464 124.135 342.576 120.418C342.317 119.908 341.762 119.655 341.226 120.068C340.734 120.446 340.737 121.025 341.052 121.505C341.308 121.893 341.68 122.222 342.048 122.516C344.551 124.513 346.892 126.662 348.695 129.341C348.985 129.773 349.265 130.244 350.035 130.454ZM328.923 109.424C329.426 109.598 329.831 110.024 330.314 109.705C330.656 109.479 330.446 109.112 330.277 108.854C328.928 106.802 326.966 105.429 324.945 104.138C324.607 103.922 324.067 103.831 323.813 104.316C323.549 104.818 323.789 105.284 324.254 105.532C326.098 106.514 327.897 107.537 328.923 109.424ZM366.203 155.701C364.422 151.347 362.146 147.279 359.105 143.666C361.134 147.874 363.148 152.087 366.203 155.701ZM377.921 250.504C378.968 249.287 379.37 247.619 379.425 246.289C379.556 243.094 380.273 239.967 380.28 236.777C380.281 236.357 380.258 235.93 380.178 235.519C380.143 235.343 379.956 235.094 379.802 235.063C379.466 234.997 379.373 235.313 379.325 235.571C379.112 236.721 378.622 237.93 379.007 239.037C379.707 241.05 378.814 242.924 378.808 244.863C378.801 246.782 377.911 248.537 377.921 250.504ZM122.534 340.494C123.352 341.04 124.248 341.722 125.226 342.25C125.666 342.487 126.313 343.229 126.725 342.575C127.162 341.881 126.225 341.701 125.794 341.381C123.633 339.773 121.386 338.271 119.546 336.274C118.898 335.571 118.341 334.783 117.674 334.099C117.334 333.751 116.841 333.136 116.342 333.613C115.792 334.139 116.342 334.744 116.734 335.119C118.609 336.909 120.533 338.648 122.534 340.494ZM377.97 202.245C376.984 206.677 378.634 210.587 378.98 215.051C380.266 212.88 380.688 211.09 379.8 209.1C379.37 208.138 378.886 207.125 379.119 206.031C379.416 204.64 378.802 203.568 377.97 202.245ZM347.091 318.952C346.969 318.867 346.847 318.781 346.726 318.696C346.577 318.834 346.421 318.964 346.283 319.11C343.914 321.625 341.55 324.146 339.177 326.656C338.672 327.19 337.999 327.609 338.022 328.463C338.024 328.547 338.265 328.711 338.372 328.694C339.206 328.557 339.707 327.995 340.279 327.392C341.457 326.148 342.299 324.529 343.935 323.766C346.048 322.78 346.209 320.657 347.091 318.952ZM329.493 337.378C331.245 336.529 332.882 336.166 334.228 335.131C334.419 334.984 334.644 334.687 334.62 334.487C334.47 333.224 335.355 332.587 336.096 331.831C336.692 331.222 337.51 330.14 336.946 329.695C336.292 329.178 335.15 329.896 334.589 330.674C334 331.489 333.304 332.17 332.64 332.898C331.512 334.137 330.135 335.29 329.493 337.378ZM374.173 266.105C373.917 268.352 371.752 269.822 371.932 272.278C372.053 273.936 371.54 275.566 370.522 276.94C369.326 278.553 369.132 280.627 367.997 282.267C367.76 282.609 367.766 283.091 368.375 283.441C368.765 282.055 370.491 281.441 370.6 280.086C370.825 277.276 372.401 275.01 373.199 272.449C373.833 270.414 374.837 268.424 374.173 266.105ZM315.461 98.7674C317.774 100.627 319.997 101.863 322.237 103.068C322.542 103.233 323.006 103.408 323.224 102.966C323.431 102.544 323.032 102.276 322.736 102.074C319.153 99.6262 315.57 97.1794 311.963 94.7666C311.454 94.4259 310.727 94.3747 310.41 94.9798C310.138 95.4995 310.717 95.7296 311.146 95.9928C312.72 96.9578 314.255 97.986 315.461 98.7674ZM328.018 339.077C326.523 338.945 325.826 339.466 325.198 340.119C323.574 341.808 321.982 343.51 319.761 344.485C319.12 344.766 318.49 345.272 318.271 346.075C318.121 346.626 317.682 346.914 317.204 347.197C316.105 347.848 315.039 348.554 313.966 349.248C313.325 349.662 312.91 350.212 312.837 351.559C318.213 347.528 323.284 343.843 328.018 339.077ZM296.177 361.315C294.791 360.949 293.709 360.654 293.155 362.146C293.057 362.409 292.806 362.628 292.541 362.575C290.672 362.205 289.334 363.564 287.768 364.107C286.536 364.534 285.102 364.617 284.077 365.492C282.215 367.083 279.966 367.664 277.676 368.168C277.086 368.297 276.553 368.495 276.088 368.862C275.842 369.056 275.555 369.294 275.799 369.657C275.971 369.911 276.274 369.9 276.522 369.793C277.156 369.518 277.825 369.284 278.391 368.901C280.296 367.614 282.488 367.19 284.669 366.744C285.566 366.56 286.516 366.431 286.742 367.779C286.838 368.353 287.344 368.331 287.756 368.116C288.237 367.865 288.102 367.557 287.76 367.242C286.998 366.541 287.762 366.351 288.155 365.943C290.318 363.699 293.397 363.066 296.177 361.315ZM71.7122 222.336C72.0625 223.973 70.9767 225.115 71.2053 226.323C71.7279 229.087 71.3706 231.97 72.3955 234.655C72.6175 235.237 72.4013 235.804 72.2969 236.38C71.9855 238.099 72.3516 239.361 73.2901 239.962C73.712 237.912 73.0433 235.83 73.2676 233.848C73.5382 231.457 73.5625 229.084 73.6113 226.701C73.6435 225.132 73.2322 223.696 71.7122 222.336ZM80.6213 275.989C80.9215 275.127 80.7421 274.721 80.6263 274.322C79.5022 270.443 78.1443 266.647 77.3707 262.646C76.8609 260.008 76.4812 257.329 75.8468 254.693C74.8613 250.595 74.5765 246.33 73.9957 242.136C73.9467 241.784 74.0432 241.285 73.4866 241.326C73.0298 241.36 72.9305 241.776 72.9638 242.175C73.116 244.028 73.2618 245.882 73.4478 247.731C73.5439 248.686 74.2963 249.461 74.2432 250.475C74.0909 253.394 75.1082 256.125 75.6533 258.929C76.2974 262.244 77.0801 265.532 77.7225 268.847C78.2041 271.335 79.3026 273.531 80.6213 275.989ZM326.273 109.953C326.024 109.751 325.798 109.508 325.521 109.357C325.067 109.109 324.66 108.201 324.11 108.863C323.711 109.344 323.702 110.201 324.158 110.817C324.438 111.196 324.816 111.528 325.209 111.795C329.449 114.675 332.799 118.574 336.541 121.998C339.222 124.452 342.036 127.064 343.696 130.504C343.904 130.937 344.271 131.379 343.788 131.789C343.359 132.154 342.84 131.966 342.472 131.639C341.918 131.146 341.451 130.559 340.911 130.048C340.644 129.795 340.27 129.531 339.906 129.787C339.463 130.098 339.61 130.574 339.852 130.933C340.593 132.037 341.291 133.186 342.157 134.187C345.193 137.692 348.056 141.325 350.633 145.182C351.787 146.908 353.092 148.528 354.118 150.344C354.346 150.746 354.803 151.395 355.377 150.994C355.853 150.661 355.418 150.115 355.189 149.711C354.812 149.046 354.591 148.338 354.574 147.58C354.564 147.092 354.104 146.435 354.791 146.158C355.443 145.894 355.875 146.45 356.22 146.929C357.646 148.911 359.096 150.878 360.066 153.147C360.265 153.612 360.286 154.603 361.096 154.229C361.868 153.873 361.331 153.092 361.082 152.548C360.912 152.175 360.538 151.9 360.29 151.556C359.299 150.185 358.213 148.867 357.36 147.413C355.776 144.71 354.238 141.971 352.861 139.158C352.041 137.484 350.654 136.314 349.52 134.954C347.62 132.676 346.686 129.45 343.443 128.395C343.191 128.313 342.957 127.951 342.856 127.668C342.037 125.375 340.548 123.617 338.851 121.882C334.807 117.743 330.921 113.451 326.273 109.953ZM295.834 86.0286C296.383 86.6655 296.638 87.5013 297.415 87.9996C299.885 89.5825 302.628 90.6288 305.205 92.0015C306.097 92.4768 306.82 93.3292 307.883 93.5227C308.058 93.0294 307.71 92.8574 307.526 92.6268C305.901 90.5873 303.448 89.7689 301.282 88.5871C299.534 87.6329 297.934 86.2578 295.835 86.0164C291.872 83.8447 287.838 81.934 283.517 80.4554C280.114 79.2912 276.762 77.9317 273.302 76.8671C271.071 76.1807 268.811 75.886 266.432 75.4514C266.664 76.2308 267.04 76.5473 267.58 76.7394C269.886 77.5604 272.135 78.6057 274.499 79.1894C279.859 80.514 284.959 82.5397 290.117 84.4425C291.949 85.1182 293.611 86.6875 295.834 86.0286ZM220.201 377.68C221.661 378.133 223.049 378.556 224.547 378.322C225.433 378.183 226.006 377.736 225.99 376.728C225.965 375.172 226.982 374.544 228.286 374.764C231.328 375.276 234.205 374.357 237.14 373.983C239.134 373.729 241.163 373.849 243.131 373.278C246.108 372.415 249.343 372.953 252.237 372.002C254.369 371.301 256.403 371.137 258.575 370.914C261.376 370.628 264.088 369.379 266.808 368.455C267.727 368.143 268.619 367.827 269.593 367.824C270.304 367.822 271.005 367.682 271.594 367.329C274.503 365.584 277.784 364.745 280.964 363.814C283.777 362.99 286.424 361.785 289.183 360.859C291.173 360.191 292.986 358.982 294.851 357.963C298.106 356.186 301.345 354.378 304.582 352.566C306.117 351.707 307.331 350.372 308.762 349.438C311.498 347.652 314.189 345.803 316.881 343.955C318.126 343.101 319.505 342.496 320.416 341.097C321.178 339.929 322.88 339.78 323.906 338.666C325.667 336.753 327.373 334.621 329.703 333.471C331.933 332.37 332.922 330.212 334.662 328.719C336.407 327.222 337.67 325.17 339.17 323.383C340.944 321.269 342.732 319.168 344.538 317.083C345.178 316.345 345.626 315.699 344.895 314.703C344.383 314.004 344.601 313.297 345.599 313.266C349.071 313.157 350.466 310.617 351.683 307.992C352.085 307.126 352.586 306.45 353.257 305.847C353.535 305.597 353.887 305.372 354.247 305.718C354.516 305.978 354.427 306.306 354.296 306.609C354.232 306.754 354.16 306.904 354.058 307.023C352.201 309.186 351.534 311.995 350.069 314.373C349.716 314.946 349.206 315.301 348.75 315.739C348.556 315.925 348.363 316.167 348.529 316.437C348.751 316.8 349.128 316.694 349.366 316.503C349.778 316.172 350.138 315.771 350.494 315.376C352.2 313.481 353.4 311.15 355.511 309.597C355.784 309.396 356.02 308.984 356.055 308.646C356.32 306.066 357.814 304.032 359.024 301.88C359.812 300.478 361.119 299.773 362.71 299.774C363.297 299.774 363.766 299.867 363.974 299.189C364.116 298.724 364.049 298.593 363.47 298.544C360.941 298.331 359.403 299.957 357.768 301.442C357.575 301.617 357.368 301.778 357.161 301.938C357.129 301.962 357.062 301.941 356.873 301.942C356.633 299.85 357.291 298.028 358.464 296.342C360.074 294.028 361.739 291.757 362.804 289.105C363.268 287.952 363.714 286.834 363.674 285.572C363.661 285.133 363.778 284.732 364.058 284.38C366.548 281.249 367.599 277.525 368.436 273.713C368.516 273.349 368.504 272.896 368.721 272.64C371.146 269.778 370.832 265.758 372.913 262.756C373.088 262.503 373.238 262.16 373.228 261.864C373.147 259.388 374.319 257.135 374.521 254.747C374.742 252.144 375.163 249.573 375.465 246.987C376.081 241.708 376.944 236.456 377.127 231.134C377.24 227.842 377.036 224.549 376.681 221.283C376.402 218.723 376.748 216.187 376.674 213.635C376.572 210.116 375.445 206.859 374.891 203.468C374.642 201.948 374.643 200.744 376.304 200.037C377.107 199.695 377.437 198.806 377.333 198.024C376.901 194.764 376.708 191.463 375.796 188.276C375.686 187.89 375.517 187.586 375.069 187.566C374.752 190.049 376.024 192.386 375.664 194.897C375.546 195.721 376.611 196.418 376.52 197.403C376.468 197.964 376.856 198.625 376.304 199.06C375.863 199.408 375.382 199.113 374.99 198.823C374.381 198.371 373.58 197.777 373.985 197.022C374.854 195.397 373.933 194.222 373.424 192.824C372.773 191.034 372.295 189.136 372.082 187.246C371.889 185.541 371.163 184.077 370.543 182.571C368.866 178.502 367.907 174.177 365.819 170.239C364.598 167.935 363.919 165.353 362.53 163.08C361.826 161.927 361.272 160.063 362.361 159.356C363.002 158.94 364.565 160.697 364.928 161.955C365.735 164.752 366.982 167.293 368.912 169.936C368.741 168.459 368.982 167.243 368.218 166.122C367.047 164.404 366.005 162.649 365.414 160.6C365.088 159.47 364.212 158.485 363.523 157.476C363.077 156.821 362.485 157.07 361.985 157.443C360.904 158.251 360.209 157.747 359.658 156.783C359.102 155.81 358.556 154.83 358.049 153.831C357.801 153.344 357.542 152.891 357.075 152.592C356.77 152.397 356.45 152.022 356.08 152.29C355.696 152.567 355.939 152.953 356.117 153.288C357.241 155.406 358.023 157.736 359.191 159.758C360.487 162.001 361.693 164.202 362.701 166.609C364.913 171.886 367.38 177.042 368.349 182.752C368.687 184.741 369.701 186.564 369.979 188.585C370.072 189.26 370.442 190.146 369.625 190.416C368.925 190.647 368.358 189.892 368.076 189.265C367.619 188.247 367.214 187.189 366.933 186.11C365.844 181.935 364.165 177.956 362.874 173.864C362.068 171.311 360.811 168.993 359.972 166.487C359.638 165.492 359.004 164.599 358.521 163.652C356.402 159.499 354.81 155.06 352.126 151.22C350.314 148.627 348.71 145.788 345.841 144.095C345.634 143.973 345.417 143.708 345.381 143.481C344.922 140.585 342.66 138.815 341.003 136.734C337.158 131.909 332.82 127.512 328.491 123.115C327.64 122.251 326.989 121.184 326.283 120.185C325.899 119.64 325.614 118.975 326.274 118.475C326.885 118.012 327.543 118.334 328.008 118.801C329.285 120.083 330.62 121.327 331.825 122.655C333.561 124.568 335.627 126.198 336.995 128.451C337.45 129.201 338.467 129.215 339.003 128.883C339.679 128.464 338.822 127.908 338.633 127.414C338.349 126.67 337.615 126.359 337.076 125.855C334.356 123.311 331.76 120.68 328.57 118.626C326.328 117.182 324.606 114.944 322.605 113.112C318.824 109.652 314.482 106.934 310.382 103.897C307.634 101.862 304.748 100.101 301.831 98.3608C301.043 97.8906 300.289 97.3876 299.792 96.5993C299.526 96.178 298.936 95.766 299.382 95.2056C299.735 94.7622 300.274 95.033 300.73 95.1577C302.341 95.5989 303.778 96.3894 305.192 97.2686C310.583 100.62 315.849 104.154 320.966 107.911C321.052 107.974 321.136 108.042 321.23 108.09C322.018 108.487 323.004 108.485 323.391 107.835C323.768 107.2 322.823 106.375 322.353 106.271C319.863 105.721 318.54 103.521 316.485 102.341C312.947 100.31 309.491 98.0878 306.101 95.8273C303.374 94.0085 300.335 92.9293 297.569 91.2568C295.822 90.2005 293.762 89.635 291.968 88.5933C289.084 86.9179 285.694 86.3507 282.935 84.4127C282.849 84.3522 282.748 84.2922 282.647 84.2772C279.547 83.8162 276.957 81.7075 273.757 81.5473C272.408 81.4796 271.204 80.8871 269.956 80.3932C267.99 79.6154 265.849 79.3486 263.904 78.4414C263.205 78.1156 262.5 77.8952 262.263 77.0766C261.99 76.133 262.891 76.1146 263.349 75.7645C263.657 75.5289 263.991 75.3257 263.87 74.8777C263.755 74.4529 263.356 74.3816 262.995 74.2768C260.326 73.5025 257.615 72.8883 254.842 72.7414C252.693 72.6277 250.807 71.8061 248.895 70.9915C248.263 70.7224 247.941 70.1402 247.678 69.5556C247.116 68.3074 247.802 67.2463 249.111 67.5787C251.423 68.1652 253.9 68.0567 256.07 69.2444C257.062 69.7866 258.204 69.3027 259.22 69.5733C263.843 70.8042 268.653 71.2765 273.121 73.1481C275.664 74.2128 278.523 74.2451 281.027 75.597C283.68 77.0289 286.391 78.4757 289.246 79.3795C292.266 80.3357 295.109 81.6018 297.941 82.9537C302.355 85.0602 306.534 87.5721 310.756 90.0362C315.928 93.0554 320.837 96.3974 325.5 100.12C328.695 102.67 331.861 105.251 334.777 108.143C337.036 110.383 339.657 112.267 341.621 114.804C345.49 119.8 350.247 124.044 353.569 129.529C355.512 132.737 358.484 135.323 360.421 138.534C362.688 142.29 365.136 145.941 367.161 149.875C368.715 152.893 369.954 156.062 371.656 159.021C373.879 162.884 375.412 167.097 376.433 171.449C377.033 174.007 378.663 176.114 379.187 178.737C380.005 182.828 381.844 186.682 381.866 190.986C381.872 192.252 382.628 193.521 383.08 194.775C383.492 195.915 383.733 197.085 383.185 198.2C382.681 199.224 383.274 200.083 383.435 200.983C383.834 203.217 384.008 205.47 384.969 207.634C385.574 208.996 385.71 210.717 385.106 212.314C384.652 213.514 384.423 214.708 384.947 216.034C385.454 217.315 385.335 218.622 384.278 219.751C383.257 220.841 383.382 221.94 384.527 222.942C385.359 223.67 385.69 224.655 385.391 225.699C384.626 228.377 385.347 230.986 385.668 233.61C385.901 235.516 385.798 237.345 384.529 238.872C383.878 239.655 383.731 240.309 384.35 241.139C385.292 242.403 384.737 243.857 384.682 245.186C384.518 249.184 383.817 253.085 382.526 256.915C381.721 259.305 381.802 261.941 381.117 264.414C379.867 268.926 379.445 273.707 377.517 277.972C376.013 281.299 375.386 285.024 373.031 287.984C371.919 289.379 371.825 291.275 371.021 292.836C369.152 296.467 367.06 299.996 365.413 303.723C363.967 306.997 361.727 309.754 360.057 312.882C358.53 315.742 356.191 318.185 354.109 320.728C352.459 322.743 351.632 325.369 349.471 326.984C346.498 329.207 344.847 332.636 342.02 335.032C340.727 336.128 339.797 337.698 338.509 338.916C336.378 340.93 333.883 342.472 331.726 344.466C330.115 345.958 328.406 347.441 326.89 348.972C324.578 351.308 321.894 353.051 319.388 355.073C316.613 357.311 313.154 358.48 310.483 360.849C308.939 362.217 307.257 363.236 305.218 363.692C304.567 363.838 303.862 364.193 303.404 364.667C301.108 367.04 297.987 367.744 295.101 368.937C293.92 369.425 292.759 369.971 291.625 370.56C289.958 371.426 288.228 372.049 286.381 372.45C283.483 373.078 280.73 374.179 278.051 375.441C277.107 375.885 276.083 375.921 275.099 376.112C273.247 376.472 271.657 377.772 269.809 377.838C266.265 377.964 263.144 379.75 259.71 380.137C256.901 380.453 254.167 381.072 251.419 381.661C249.145 382.149 246.879 382.69 244.585 383.061C242.912 383.331 241.194 383.314 239.506 383.513C234.556 384.094 229.541 383.437 224.613 384.229C220.998 384.81 217.503 384.049 213.97 383.6C213.338 383.52 212.67 383.369 212.068 383.49C210.275 383.85 208.702 383.284 207.133 382.557C206.802 382.404 206.381 382.153 206.092 382.241C202.414 383.365 199.013 381.992 195.501 381.256C192.047 380.531 188.514 380.176 185.008 379.722C183.931 379.583 182.893 379.389 181.963 378.831C179.296 377.233 176.317 376.055 173.4 375.53C168.749 374.692 165.035 371.909 160.708 370.535C158.884 369.956 157.045 369.407 155.202 368.891C154.202 368.611 153.234 368.311 152.448 367.686C149.793 365.576 146.727 364.18 143.713 362.747C139.172 360.587 135.459 357.115 130.932 354.956C129.862 354.445 129.134 353.458 128.324 352.62C126.967 351.218 125.095 350.586 123.635 349.351C123.432 349.181 123.127 349.076 123.014 348.864C121.987 346.943 120.118 345.964 118.409 344.879C112.589 341.183 108.625 335.688 104.143 330.659C102.156 328.431 100.79 325.74 98.5635 323.733C98.3686 323.557 98.1906 323.336 98.0773 323.1C95.5512 317.84 91.5523 313.587 88.3102 308.817C87.464 307.572 86.7852 306.268 86.467 304.767C86.2714 303.844 85.5455 303.122 85.1201 302.331C84.0207 300.286 82.3038 299.083 80.665 297.599C79.1788 296.252 78.3774 293.839 77.9129 291.755C77.3507 289.233 75.8745 287.216 74.9699 284.907C74.756 284.361 74.2945 283.818 74.4466 283.258C75.1824 280.553 73.5523 278.427 72.7912 276.089C72.6591 275.684 72.4323 275.292 72.3906 274.88C71.919 270.224 69.7457 266.056 68.5828 261.598C68.2995 260.512 67.9614 259.461 68.0034 258.309C68.03 257.574 68.0089 256.773 67.7498 256.101C66.7368 253.472 66.6446 250.678 66.184 247.955C65.9422 246.526 65.7028 245.122 65.1323 243.785C64.9867 243.444 64.7636 243.053 64.817 242.724C65.3056 239.709 63.6717 236.837 64.357 233.746C64.6695 232.336 64.0339 230.702 63.7679 229.18C63.4978 227.633 63.342 226.212 65.1417 225.379C65.9671 224.997 65.8935 224.318 65.055 224.004C63.7153 223.502 63.6819 222.572 63.946 221.416C64.2337 220.156 64.1647 218.882 64.0654 217.594C63.9173 215.675 63.968 213.778 64.8477 211.963C65.233 211.168 65.3647 210.227 65.4921 209.334C65.9039 206.458 66.0948 203.514 66.6457 200.701C67.5823 195.918 67.7346 190.966 69.517 186.347C70.1098 184.812 69.7016 182.984 70.6241 181.549C71.7424 179.808 72.2952 177.865 72.8448 175.931C73.8028 172.556 75.0658 169.295 76.3271 166.032C77.1869 163.809 78.5625 161.815 79.2629 159.518C79.9991 157.104 81.3665 154.992 82.6832 152.9C85.1427 148.992 87.1929 144.851 89.6092 140.913C91.283 138.184 93.5123 135.86 94.9235 132.926C96.0572 130.57 97.8215 128.479 99.5081 126.437C102.008 123.411 104.408 120.205 107.368 117.683C110.242 115.236 112.202 111.898 115.498 109.898C116.7 109.169 117.763 108.076 118.626 106.948C120.732 104.189 123.868 102.659 126.278 100.274C127.224 99.3376 128.512 98.8618 129.61 98.114C132.338 96.2573 134.946 94.2576 137.429 92.0978C138.788 90.9163 140.556 90.5493 142.017 89.538C145.163 87.3594 148.452 85.3591 151.971 83.8478C155.165 82.4761 158.165 80.7778 161.191 79.1027C161.837 78.7449 162.556 78.3873 163.273 78.3071C167.077 77.8821 170.187 75.6165 173.714 74.4487C176.845 73.412 179.839 71.9986 183.167 71.5806C185.182 71.3275 187.143 70.7399 189.003 69.9328C190.327 69.3579 191.729 69.5123 193.082 69.2802C195.545 68.8577 197.905 67.9741 200.435 67.8397C202.668 67.7212 204.866 67.2995 207.059 66.775C210.486 65.9556 214.023 66.3251 217.514 66.205C217.83 66.194 218.173 66.3492 218.462 66.272C222.148 65.2907 225.801 65.6392 229.542 66.1245C233.485 66.6364 237.512 66.1548 241.499 66.4586C242.92 66.5671 243.86 67.2406 244.61 68.3928C245.315 69.4753 244.964 70.2189 243.861 70.4186C242.163 70.7266 240.472 71.2086 238.682 70.5352C236.567 69.7396 234.427 69.6035 232.109 70.1449C229.525 70.7489 226.8 70.274 224.165 69.9713C223.175 69.8576 222.197 69.5837 221.181 69.6649C217.104 69.9895 212.995 69.9226 208.95 70.5931C207.649 70.8089 206.388 71.2566 205.103 71.573C204.693 71.6743 204.233 71.8216 203.845 71.7328C199.871 70.8259 196.365 72.9785 192.597 73.4163C187.998 73.9504 183.775 76.1844 179.048 76.3644C177.588 76.4199 176.17 77.6299 174.741 78.3274C174.456 78.4662 174.23 78.7754 173.939 78.843C169.002 79.9884 164.987 83.5462 159.878 84.2158C158.109 84.4478 157.057 85.8445 155.637 86.631C153.495 87.8163 151.32 88.937 148.981 89.7326C144.611 91.2183 141.284 94.3436 137.712 97.0759C137.416 97.3023 137.152 97.5802 136.832 97.7651C131.101 101.089 126.523 105.878 121.357 109.919C115.802 114.265 111.005 119.413 106.182 124.509C104.675 126.101 103.405 128.003 102.101 129.819C98.0985 135.394 93.7799 140.776 90.4401 146.773C87.4226 152.191 84.1286 157.481 81.7345 163.238C80.1908 166.95 78.5512 170.624 77.3966 174.486C77.2591 174.946 77.0984 175.399 76.9842 175.865C76.9105 176.165 76.8076 176.547 77.1684 176.716C77.541 176.891 77.7522 176.548 77.9279 176.295C78.811 175.02 79.4159 173.601 79.9903 172.174C81.6748 167.989 82.9974 163.615 85.098 159.653C87.1148 155.85 88.715 151.701 91.9567 148.623C92.1697 148.42 92.2294 148.056 92.3606 147.767C93.2181 145.88 94.0023 143.989 95.6433 142.544C97.0539 141.302 97.5494 139.375 98.6021 137.829C100.062 135.683 102.021 134.036 103.63 132.06C103.763 131.896 103.984 131.789 104.082 131.611C107.034 126.226 112.032 122.648 116.032 118.193C117.537 116.518 119.319 114.996 121.288 113.793C123.171 112.641 124.261 110.597 126.184 109.494C126.457 109.337 126.663 109.054 126.943 108.919C127.479 108.661 128.108 108.421 128.525 109.042C128.889 109.583 128.508 110.055 128.114 110.445C126.15 112.391 124.141 114.288 121.791 115.773C120.284 116.727 118.999 117.886 117.971 119.359C116.959 120.809 115.595 121.93 114.305 123.132C112.059 125.224 109.901 127.382 108.044 129.89C106.285 132.264 104.447 134.631 102.408 136.788C101.026 138.25 100.088 139.94 99.1319 141.659C98.4087 142.959 97.6659 144.267 96.7663 145.445C94.7054 148.144 92.3761 150.673 90.9847 153.806C89.5266 157.089 86.9841 159.793 86.0403 163.346C85.8124 164.205 85.2854 164.984 84.8937 165.799C82.4949 170.786 80.5323 175.953 78.7906 181.194C77.7871 184.213 77.1853 187.363 76.3011 190.426C75.7716 192.259 75.5384 194.146 74.9594 195.982C73.8744 199.422 73.5075 203.039 73.033 206.609C72.8087 208.295 72.6811 209.996 72.2993 211.654C71.5763 214.795 71.5632 217.943 71.9915 221.312C73.0278 220.771 73.3546 220.005 73.5417 219.092C73.7556 218.05 74.0026 217.009 74.3309 215.999C74.4743 215.558 74.4566 214.749 75.21 214.901C75.8616 215.031 75.7727 215.758 75.7722 216.258C75.7705 217.745 75.8684 219.256 75.7538 220.714C75.497 223.987 75.4492 227.273 75.2202 230.546C75.0648 232.765 75.2309 235.121 75.8235 237.344C76.1305 238.495 76.3819 239.655 76.2522 240.818C75.8492 244.439 76.7803 247.913 77.4532 251.391C77.7891 253.124 77.6414 254.898 78.1935 256.6C79.1935 259.68 79.8485 262.855 80.8059 265.96C82.3924 271.102 84.2047 276.159 85.9149 281.255C86.3522 282.557 86.4918 283.962 86.7345 285.326C86.8633 286.049 86.5704 286.646 85.8501 286.822C84.236 287.215 84.5717 288.283 85.1929 289.109C86.469 290.809 86.3702 292.14 84.6875 293.481C83.8856 294.12 84.6532 296.67 85.6504 296.987C86.4333 297.236 86.2434 296.648 86.2561 296.255C86.2756 295.65 85.7771 294.855 86.5211 294.505C87.3435 294.118 88.0689 294.735 88.674 295.234C90.0472 296.367 90.3609 298.162 91.2676 299.596C92.0579 300.844 92.6937 302.189 93.5846 303.417C93.7133 302.125 93.0939 301.065 92.405 300.081C90.2564 297.01 88.8862 293.582 87.6694 290.076C87.544 289.715 87.3993 289.298 87.8322 289.088C88.3768 288.825 88.7438 289.188 89.0129 289.621C90.0255 291.249 91.2007 292.805 91.989 294.537C92.9286 296.602 94.4197 298.433 94.6851 300.81C94.8491 302.276 96.146 303.111 96.9268 304.23C99.3771 307.742 101.758 311.298 104.143 314.853C106.736 318.717 109.304 322.676 113.001 325.716C115.173 327.503 116.68 329.952 118.502 332.089C118.745 332.373 118.907 332.781 119.208 332.95C122.54 334.82 124.331 338.457 127.453 340.405C130.166 342.099 132.336 344.452 135.225 345.942C137.787 347.263 139.792 349.644 142.326 351.044C145.039 352.544 147.352 354.663 150.325 355.783C152.53 356.614 154.485 358.059 156.645 359.094C161.696 361.512 167.066 363.171 172.083 365.587C177.158 368.03 182.662 368.757 187.902 370.483C189.95 371.157 192.136 371.41 194.27 371.857C194.293 371.643 194.351 371.506 194.307 371.452C193.655 370.637 192.969 369.628 193.421 368.705C193.935 367.654 195.25 367.999 196.204 368.115C199.203 368.479 202.201 368.9 205.171 369.45C206.591 369.713 208.075 369.294 209.432 369.948C210.036 370.239 210.952 370.347 210.911 371.195C210.869 372.057 209.925 372.026 209.305 372.254C208.687 372.482 208.05 372.409 207.411 372.27C204.862 371.717 202.309 371.183 199.759 370.64C199.016 370.482 198.274 370.477 197.533 370.634C196.951 370.759 196.538 371.052 196.597 371.718C196.651 372.33 197.008 372.73 197.617 372.765C201.699 372.999 205.684 374.328 209.832 373.832C211.296 373.657 212.588 374.563 214.061 374.554C216.242 374.541 218.437 374.376 220.607 374.788C220.921 374.848 221.245 374.872 221.548 374.966C222.134 375.146 222.704 375.45 222.705 376.129C222.706 376.862 222.046 377.001 221.475 377.171C221.088 377.286 220.601 377.079 220.201 377.68Z" fill="black"/>
    </g>
    <path fill-rule="evenodd" clip-rule="evenodd" d="M110.35 240.134C110.438 238.845 110.014 237.96 110.027 237.009C110.062 234.492 110.094 231.968 109.767 229.46C109.704 228.981 109.654 228.343 109.076 228.381C108.317 228.429 108.718 229.072 108.741 229.495C108.874 231.859 109.673 234.141 109.35 236.587C109.214 237.608 109.537 238.847 110.35 240.134ZM237.181 334.208C239.62 334.334 241.686 333.519 243.826 333.435C244.077 333.425 244.371 333.265 244.278 332.913C244.187 332.569 243.861 332.364 243.566 332.351C241.347 332.252 238.985 331.659 237.181 334.208ZM312.661 152.647C312.99 154.902 317.38 159.897 318.969 160.024C317.871 156.682 314.596 155.254 312.661 152.647ZM319.411 290.376C317.77 291.877 316.925 293.425 315.615 295.253C317.142 294.731 318.275 294.673 319.425 294.749C320.048 294.79 320.313 294.265 320.527 293.763C320.667 293.434 320.668 293.092 320.301 292.962C319.188 292.569 319.252 291.661 319.411 290.376ZM210.684 333.575C210.737 333.675 210.76 333.812 210.834 333.85C213.72 335.304 216.76 334.898 219.791 334.574C220.06 334.546 220.362 334.442 220.293 334.101C220.201 333.646 219.804 333.646 219.419 333.601C216.894 333.301 214.338 333.709 211.817 333.253C211.446 333.186 210.96 333.111 210.684 333.575ZM325.67 170.718C325.974 170.103 325.926 169.605 325.664 169.32C324.345 167.888 323.809 166.022 322.834 164.405C322.48 163.818 322.077 163.259 321.676 162.703C321.431 162.364 321.087 162.243 320.701 162.458C320.234 162.719 320.395 163.095 320.61 163.405C320.949 163.894 321.028 164.52 321.326 164.975C322.625 166.956 323.25 169.468 325.67 170.718ZM308.766 302.71C307.554 303.555 307.065 304.946 306.01 305.536C302.983 307.228 300.894 310.036 298.049 311.92C297.295 312.419 296.601 313.004 296.093 313.769C295.806 314.202 295.914 314.542 296.457 314.46C297.245 314.341 298.317 313.974 298.462 313.39C299.039 311.066 301.413 310.695 302.711 309.166C304.056 307.582 306.55 307.146 307.273 304.821C307.352 304.569 307.732 304.394 307.997 304.221C308.464 303.914 308.808 303.549 308.766 302.71ZM274.282 323.708C274.736 323.928 275.132 323.74 275.505 323.545C278.477 321.987 281.453 320.437 284.402 318.836C284.905 318.563 285.874 318.268 285.524 317.58C285.207 316.957 284.303 317.199 283.657 317.513C283.42 317.629 283.142 317.742 282.993 317.939C282.11 319.118 280.793 319.603 279.494 320.011C277.683 320.58 276.489 322.191 274.66 322.711C274.324 322.807 273.92 323.196 274.282 323.708ZM171.464 328.065C171.932 328.558 172.586 328.752 173.017 328.275C174.039 327.145 175.138 327.347 176.346 327.783C176.705 327.913 177.266 328.133 177.352 327.502C177.417 327.027 176.986 326.763 176.511 326.74C175.371 326.684 174.491 326.046 173.736 325.325C172.72 324.354 171.375 324.508 170.212 324.07C169.829 323.925 169.3 324.201 169.59 324.622C170.341 325.71 170.542 327.085 171.464 328.065ZM123.411 273.072C122.479 270.421 121.644 267.972 120.758 265.54C119.828 262.987 118.444 260.585 118.232 257.796C118.195 257.314 117.921 256.908 117.421 257.051C116.836 257.219 117.059 257.716 117.221 258.112C118.29 260.714 118.698 263.51 119.504 266.191C120.169 268.405 121.612 270.149 122.345 272.269C122.459 272.599 122.727 272.91 123.411 273.072ZM337.928 206.001C338.11 204.737 338.322 203.476 338.447 202.207C338.472 201.949 338.229 201.581 338.002 201.395C336.704 200.329 336.599 198.893 336.53 197.357C336.458 195.727 336.179 194.101 335.288 192.66C335.095 192.348 334.979 191.916 334.501 192.02C334.007 192.128 333.873 192.542 333.857 192.999C333.825 193.876 334.176 194.647 334.472 195.449C335.339 197.802 336.77 199.984 336.505 202.684C336.383 203.92 337.179 204.934 337.928 206.001ZM327.912 264.836C327.505 265.329 327.088 265.814 326.973 266.477C326.51 269.136 325.175 271.446 324.032 273.835C323.668 274.597 323.168 275.758 324.032 276.098C324.898 276.439 325.295 275.189 325.565 274.437C326.069 273.039 326.569 271.674 327.321 270.363C328.293 268.667 328.97 266.8 329.754 264.998C329.924 264.607 330.064 264.123 329.643 263.826C329.129 263.463 328.754 263.874 328.417 264.219C328.232 264.409 328.079 264.63 327.912 264.836ZM325.351 178.858C325.085 179.731 325.432 180.45 325.715 181.168C327.067 184.6 328.684 187.915 329.63 191.524C330.107 193.342 330.693 195.173 331.346 196.959C331.472 197.304 331.599 197.72 332.084 197.65C332.59 197.578 332.559 197.161 332.529 196.781C332.397 195.134 332.242 193.484 331.347 192.036C330.685 190.965 330.254 189.806 330.319 188.572C330.391 187.185 329.816 186.283 328.744 185.512C328.163 185.095 327.245 184.599 327.469 183.821C328.13 181.521 325.93 180.568 325.351 178.858ZM113.055 228.621C111.412 230.747 114.467 251.367 116.627 253.239C114.497 245.259 114.194 237.009 113.055 228.621ZM338.711 240.6C339.342 240.669 339.561 240.208 339.732 239.72C340.197 238.394 339.826 236.984 340.07 235.661C340.432 233.69 341.151 231.779 340.369 229.749C340.245 229.425 340.372 229.01 340.349 228.64C340.107 224.69 340.238 220.712 339.497 216.797C339.437 216.478 339.392 216.072 339.035 216.048C338.501 216.013 338.538 216.513 338.519 216.863C338.492 217.392 338.479 217.929 338.537 218.454C338.809 220.905 339.532 223.309 339.208 225.823C339.067 226.918 338.912 228.053 339.051 229.133C339.455 232.28 339.236 235.366 338.544 238.444C338.394 239.114 338.371 239.815 338.711 240.6ZM332.411 188.527C332.869 189.065 333.156 189.36 333.561 189.093C334.117 188.727 333.97 188.213 333.822 187.666C333.093 184.973 331.287 182.642 331.157 179.746C331.148 179.55 331.029 179.324 330.892 179.175C329.421 177.565 328.76 175.518 327.844 173.606C327.571 173.035 327.399 172.009 326.475 172.484C325.599 172.934 326.072 173.776 326.398 174.451C327.44 176.607 328.515 178.747 329.525 180.918C330.241 182.456 331.122 183.98 331.136 185.723C331.147 187.034 331.764 187.929 332.411 188.527ZM333.711 210.173C333.025 212.202 333.517 213.893 334.737 215.415C335.373 216.209 335.93 217.023 335.299 218C334.623 219.045 334.847 220.113 334.867 221.231C334.906 223.484 335.35 225.743 334.998 227.985C334.354 232.079 334.175 236.191 334.736 240.282C335.044 242.532 333.741 244.185 333.168 246.104C333.04 246.532 332.569 246.932 332.016 246.723C331.542 246.543 331.287 246.077 331.237 245.589C331.201 245.234 331.347 244.863 331.388 244.496C331.662 241.991 332.518 239.525 331.921 236.961C331.834 236.588 332.069 235.961 331.471 235.917C330.891 235.875 330.499 236.333 330.333 236.877C329.9 238.292 329.26 239.624 329.14 241.158C328.966 243.378 328.848 245.672 328.187 247.771C326.625 252.737 326.3 258.027 324.013 262.807C322.669 265.617 321.823 268.662 320.537 271.504C318.542 275.916 315.449 279.727 313.449 284.16C312.852 285.483 311.937 286.837 310.807 287.709C308.645 289.378 307.031 291.476 305.61 293.696C304.12 296.025 302.226 297.915 300.2 299.714C296.746 302.78 293.179 305.723 289.814 308.883C287.62 310.945 285.283 312.874 282.62 314.099C280.456 315.096 278.519 316.252 276.735 317.761C276.614 317.863 276.475 317.954 276.329 318.015C274.162 318.915 272.277 320.335 269.942 320.994C267.881 321.576 266.11 323.084 263.985 323.641C260.857 324.46 258.001 326.214 254.692 326.372C253.615 326.424 252.606 326.644 251.574 326.943C248.411 327.86 245.191 328.543 241.893 328.73C240.854 328.789 239.827 328.471 238.784 328.997C237.209 329.791 235.496 330.078 233.721 329.996C233.2 329.972 232.612 329.944 232.269 330.456C232.089 330.724 232.087 331.102 232.331 331.354C232.792 331.829 233.456 331.896 233.965 331.646C235.576 330.855 237.202 331.316 238.827 331.432C239.248 331.462 239.649 331.516 240.087 331.431C242.99 330.868 245.639 329.563 248.761 329.453C252.024 329.339 255.247 327.987 258.477 327.135C259.148 326.958 259.863 326.492 260.262 327.381C260.618 328.175 259.903 328.592 259.326 328.793C256.283 329.854 253.292 331.218 249.982 331.13C248.247 331.085 247.036 331.899 245.907 333.113C248.847 331.896 252.11 332.763 255.047 331.441C256.727 330.684 258.546 330.033 260.358 329.833C262.028 329.649 263.391 328.918 264.851 328.32C265.583 328.021 265.928 327.485 265.514 326.662C264.956 325.546 265.401 324.887 266.481 324.415C269.539 323.078 272.732 322.032 275.535 320.138C277.63 318.722 280.23 318.199 282.096 316.318C282.776 315.633 283.822 315.278 284.749 314.886C285.465 314.582 286.197 314.6 286.729 315.374C287.751 316.86 288.745 316.936 289.962 315.565C291.531 313.799 293.416 312.41 295.317 311.057C298.404 308.861 301.113 306.25 303.857 303.663C304.815 302.76 305.305 301.419 306.363 300.742C307.547 299.985 308.63 299.184 309.51 298.107C311.695 295.436 313.785 292.683 316.062 290.094C318.665 287.133 320.157 283.517 322.189 280.221C322.47 279.765 322.909 279.017 322.36 278.622C321.721 278.164 321.418 279.043 321.002 279.38C320.616 279.693 320.237 280.042 319.73 279.725C319.221 279.406 319.092 278.866 319.253 278.317C319.354 277.971 319.542 277.614 319.788 277.354C320.873 276.208 321.424 274.775 322.142 273.411C322.942 271.894 323.121 270.159 324.004 268.729C324.991 267.132 325.725 265.424 326.23 263.657C327.264 260.039 328.756 256.551 329.326 252.8C329.443 252.034 329.9 251.477 330.75 251.637C331.521 251.781 331.646 252.491 331.67 253.138C331.685 253.553 331.628 254.013 331.456 254.386C330.579 256.284 330.477 258.413 329.65 260.323C329.477 260.724 329.348 261.191 329.863 261.433C330.323 261.649 330.724 261.384 330.941 260.998C331.171 260.589 331.323 260.125 331.444 259.668C331.921 257.878 332.001 255.973 332.944 254.32C333.406 253.51 333.51 252.669 333.61 251.75C333.851 249.54 334.178 247.32 334.723 245.169C335.296 242.901 336.1 240.806 336.246 238.322C336.432 235.138 335.548 231.811 336.916 228.693C337.062 228.361 336.952 227.815 336.774 227.463C336.202 226.325 336.08 225.106 336.099 223.887C336.123 222.379 335.662 220.858 335.799 219.429C336.115 216.108 336.307 212.937 333.711 210.173ZM234.732 334.507C233.333 333.628 232.179 333.667 231.043 333.971C230.256 334.182 229.581 334.012 228.879 333.725C227.784 333.277 227.412 332.773 228.701 332.08C229.18 331.823 229.421 331.433 229.276 330.897C229.134 330.375 228.652 330.359 228.232 330.347C226.693 330.302 225.162 330.116 223.612 330.339C219.613 330.915 215.628 330.255 211.796 329.407C209.197 328.832 206.623 328.597 204.021 328.347C203.056 328.254 202.183 328.013 201.271 327.667C200.113 327.227 199.089 325.976 197.747 326.493C196.001 327.165 194.508 326.681 192.999 325.947C191.224 325.086 189.433 324.213 187.518 323.781C184.769 323.161 182.371 321.84 179.89 320.606C178.368 319.849 177.201 318.508 175.538 318.07C173.294 317.478 171.273 316.491 169.508 314.984C168.167 313.839 166.682 312.905 165.185 311.981C162.473 310.308 160.046 308.24 157.532 306.3C154.361 303.852 151.708 300.864 149.303 297.688C148.529 296.665 147.025 296.352 146.756 294.965C146.6 294.161 146.214 293.591 145.577 293.156C143.7 291.871 142.605 289.933 141.691 287.989C140.254 284.927 137.941 282.49 136.123 279.71C135.003 277.998 134.931 276.154 134.342 274.387C134.215 274.005 134.365 273.511 134.83 273.311C135.307 273.107 135.665 273.412 135.95 273.723C136.847 274.702 137.805 275.64 138.203 276.973C139.085 279.93 140.852 282.439 142.602 284.882C145.529 288.971 148.324 293.181 151.939 296.744C154.132 298.906 156.067 301.358 158.41 303.334C161.562 305.994 164.868 308.512 168.424 310.622C170.035 311.578 171.518 312.615 172.946 313.825C174.309 314.981 175.831 316.149 177.488 316.728C183.717 318.902 189.419 322.351 195.771 324.19C196.871 324.508 197.841 325.397 199.076 325.105C199.909 324.907 200.655 325.011 201.402 325.353C202.653 325.925 203.978 326.035 205.315 325.878C206.847 325.698 208.27 326.083 209.694 326.545C210.247 326.724 210.803 326.94 211.374 327.02C215.007 327.527 218.694 327.202 222.332 327.73C224.754 328.082 227.214 327.752 229.643 327.743C232.221 327.733 234.928 327.952 237.411 327.263C240.023 326.536 242.557 325.982 245.225 326.522C246.722 326.825 247.661 325.553 248.965 325.386C252.596 324.922 255.969 323.525 259.299 322.183C263.279 320.581 267.34 319.226 271.345 317.711C274.262 316.608 277.069 315.13 279.334 313.137C283.022 309.892 287.425 307.711 291.096 304.423C294.088 301.742 297.071 299.038 299.847 296.165C302.34 293.586 304.397 290.576 306.959 288.022C307.594 287.388 308.461 286.981 308.864 286.116C311.474 280.52 315.316 275.623 317.965 270.043C318.671 268.557 318.828 266.83 319.932 265.537C320.814 264.505 321.186 263.286 321.662 262.032C323.949 256.004 325.1 249.71 326.373 243.44C326.7 241.826 326.479 240.148 326.987 238.549C327.676 236.382 327.686 234.148 327.565 231.901C327.511 230.893 327.363 229.826 327.61 228.878C328.548 225.28 327.584 221.762 327.157 218.266C326.637 214.009 326.235 209.74 325.727 205.483C325.638 204.742 325.638 203.801 326.496 203.579C327.449 203.331 327.768 204.315 327.93 204.972C328.513 207.33 328.672 209.773 328.983 212.172C329.326 214.824 329.816 217.468 329.937 220.166C330.078 223.329 330.901 226.473 329.779 229.62C329.429 230.602 329.551 231.629 329.971 232.58C330.307 233.341 331.011 233.721 331.781 233.643C332.534 233.568 332.457 232.79 332.539 232.234C332.632 231.605 332.656 230.967 332.719 230.333C332.956 227.943 331.923 225.617 332.381 223.212C332.602 222.051 332.539 220.874 332.306 219.726C331.955 217.99 331.824 216.243 331.961 214.484C332.071 213.073 331.875 211.761 331.307 210.441C330.625 208.856 330.499 207.139 330.705 205.424C330.769 204.888 331.036 204.349 331.68 204.321C332.39 204.291 332.511 204.857 332.576 205.412C332.638 205.941 332.663 206.476 332.753 207C332.856 207.601 332.755 208.572 333.48 208.556C334.074 208.543 334.447 207.639 334.615 206.974C334.713 206.587 334.599 206.133 334.526 205.718C334.333 204.62 334.046 203.546 334.068 202.408C334.086 201.403 333.253 200.707 332.917 199.818C332.863 199.675 332.569 199.528 332.401 199.544C332.067 199.577 332.076 199.88 332.074 200.157C332.073 200.577 332.131 201.028 332 201.409C331.818 201.939 331.652 202.602 330.906 202.621C330.239 202.637 329.821 202.192 329.579 201.632C329.265 200.901 328.915 200.158 328.769 199.385C328.077 195.729 327.185 192.143 325.535 188.778C325.257 188.212 325.105 187.573 324.965 186.951C324.405 184.461 323.243 182.187 322.336 179.829C321.656 178.062 321.156 176.203 320.109 174.562C319.694 173.912 319.602 172.893 320.665 172.578C321.597 172.302 321.947 173.031 322.186 173.812C322.323 174.261 322.568 174.683 322.801 175.096C322.93 175.325 323.155 175.548 323.445 175.393C323.742 175.234 323.697 174.875 323.553 174.686C322.475 173.273 322.148 171.473 321.138 170.034C318.947 166.914 317.114 163.562 314.755 160.541C312.707 157.919 311.078 154.984 308.625 152.656C307.865 151.935 306.986 150.908 308.497 149.893C309.067 149.509 308.932 148.986 308.5 148.529C304.93 144.745 301.907 140.33 296.755 138.373C296.094 138.122 295.652 137.576 295.128 137.125C293.29 135.542 291.906 133.396 289.517 132.486C288.559 132.121 287.816 131.455 286.989 130.886C285.254 129.689 283.584 128.362 281.777 127.315C280.106 126.348 278.392 125.354 276.504 124.749C275.382 124.39 274.465 123.612 273.611 122.794C272.881 122.094 272.618 121.368 273.59 120.677C274.591 119.965 274.234 119.41 273.355 119.099C272.233 118.701 271.27 118.035 270.24 117.486C266.185 115.323 261.451 115.015 257.427 112.733C255.798 111.811 253.653 112.1 252.09 111.245C248.246 109.14 244.001 109.456 239.961 109.009C233.901 108.338 227.76 108.862 221.65 109.085C219.239 109.173 216.775 109.8 214.365 109.079C212.934 108.65 211.593 108.971 210.338 109.53C209.532 109.889 208.704 110.24 207.896 110.127C204.906 109.708 202.264 111.118 199.502 111.724C195.03 112.705 190.776 114.65 186.18 115.159C184.041 115.395 182.645 116.999 180.72 117.637C177.952 118.554 175.014 119.409 172.667 121.038C168.986 123.592 164.898 125.443 161.314 128.137C157.408 131.073 152.981 133.28 149.534 136.877C147.038 139.483 144.345 141.906 141.665 144.329C139.368 146.407 137.678 149.025 135.4 151.131C134.241 152.203 132.758 152.913 131.908 154.36C130.301 157.096 128.642 159.804 126.915 162.465C125.561 164.551 124.763 167.045 122.729 168.631C121.532 169.563 121.045 170.786 120.768 172.15C120.576 173.099 120.145 173.965 119.918 174.885C119.336 177.255 117.664 179.106 116.887 181.341C115.129 186.405 113.307 191.444 111.764 196.591C110.599 200.48 110.283 204.473 109.329 208.365C108.986 209.762 108.866 211.194 109.025 212.641C109.063 212.985 109.105 213.298 109.481 213.378C109.876 213.461 110.059 213.161 110.162 212.852C110.531 211.74 110.973 210.602 110.721 209.427C110.408 207.972 110.7 206.596 110.856 205.166C111.093 202.981 112.016 201.002 112.444 198.908C113.226 195.076 115.378 191.647 115.617 187.672C115.636 187.366 116.067 187.104 116.242 186.786C117.488 184.526 119.734 182.699 120.07 180.102C120.449 177.174 121.94 174.969 123.511 172.709C124.298 171.577 125.102 170.456 125.942 169.365C126.19 169.043 126.58 168.73 127.045 169.003C127.176 169.08 127.302 169.448 127.236 169.534C126.402 170.625 126.546 172.077 125.807 173.217C124.127 175.811 122.841 178.608 121.985 181.575C121.505 183.238 120.719 184.72 119.755 186.124C119.362 186.695 118.897 187.222 118.705 187.901C117.312 192.844 114.656 197.302 113.736 202.488C112.992 206.679 112.528 210.886 111.996 215.088C111.733 217.173 111.875 219.327 112.009 221.439C112.133 223.389 111.757 225.434 112.769 227.371C113.818 225.444 113.864 223.42 113.685 221.524C113.363 218.117 114.343 214.943 114.832 211.672C115.073 210.062 116.048 208.717 116.149 207.097C116.514 201.23 118.716 195.856 120.643 190.409C120.944 189.557 121.424 188.788 122.508 189.153C123.585 189.515 123.296 190.373 123.065 191.158C121.627 196.054 119.632 200.767 118.342 205.714C118.003 207.012 117.609 208.272 117.857 209.628C117.955 210.165 117.92 210.692 117.742 211.204C116.643 214.349 116.407 217.651 116.318 220.916C116.165 226.515 116.071 232.096 116.769 237.72C117.276 241.804 118.154 245.829 118.586 249.935C119.016 254.023 120.555 258.013 121.889 261.974C122.619 264.145 123.866 266.115 124.394 268.31C124.873 270.297 126.172 271.652 127.255 273.201C127.406 273.418 127.663 273.599 127.939 273.478C128.276 273.331 128.074 273.05 128.053 272.794C127.793 269.604 126.009 266.906 124.895 264.051C123.344 260.076 122.365 256.005 121.323 251.924C120.989 250.618 120.737 249.327 119.746 248.33C119.299 247.879 119.025 247.403 119.505 246.792C120.325 245.748 120.132 244.623 119.811 243.45C119.321 241.658 118.553 239.928 118.479 238.039C118.334 234.383 118.542 230.733 118.716 227.083C118.746 226.442 118.833 225.815 118.629 225.189C118.221 223.942 118.483 222.779 119.067 221.648C119.314 221.17 119.502 220.563 120.141 220.629C120.919 220.71 120.93 221.431 120.926 221.999C120.911 223.997 120.62 225.966 120.838 228.001C121.015 229.657 121.186 231.352 121.077 233.073C120.928 235.443 121.238 237.842 121.031 240.229C120.928 241.416 121.936 242.269 121.986 243.405C122.177 247.732 123.416 251.865 124.337 256.055C124.471 256.668 124.757 257.262 125.054 257.822C125.71 259.053 126.138 260.351 126.493 261.698C127.007 263.649 127.679 265.573 128.692 267.318C129.817 269.257 130.919 271.174 131.533 273.358C132.05 275.197 133.176 276.842 133.26 278.836C133.273 279.142 133.782 279.5 133.314 279.768C132.867 280.024 132.645 279.579 132.521 279.235C132.004 277.797 130.958 276.709 130.08 275.514C129.78 275.106 129.537 274.269 128.779 274.909C128.234 275.369 127.577 275.845 128.109 276.777C128.839 278.056 129.426 279.419 130.202 280.667C131.971 283.511 133.741 286.36 135.655 289.105C137.808 292.193 139.999 295.27 142.394 298.168C145.823 302.316 150.009 305.733 153.925 309.4C155.91 311.257 157.678 313.403 160.348 314.529C161.864 315.169 163.133 316.433 164.451 317.492C166.87 319.436 169.24 321.43 172.685 319.98C172.946 319.87 173.319 319.93 173.614 320.008C175.525 320.511 177.347 321.235 179.037 322.275C179.449 322.529 179.7 322.869 179.505 323.33C179.254 323.922 178.754 323.844 178.291 323.611C177.54 323.233 176.797 322.869 175.67 323.089C176.719 324.789 178.278 325.524 179.828 326.072C184.054 327.565 188.334 328.901 192.593 330.301C192.887 330.398 193.267 330.639 193.441 330.28C193.679 329.789 193.158 329.682 192.852 329.527C192.521 329.359 192.152 329.266 191.815 329.109C189.195 327.882 186.128 327.871 183.699 326.119C183.05 325.65 181.615 325.546 181.928 324.658C182.295 323.616 183.599 324.257 184.331 324.544C187.358 325.73 190.506 326.493 193.598 327.451C198.474 328.962 203.45 330.044 208.436 331.062C209.968 331.374 211.596 331.321 213.182 331.491C215.874 331.78 218.527 332.736 221.326 331.919C222.478 331.583 223.346 332.703 222.949 333.891C222.635 334.83 223.048 334.883 223.736 334.919C227.285 335.108 230.809 334.687 234.732 334.507ZM326.669 290.813C324.012 294.398 321.45 298.06 318.489 301.401C314.899 305.453 311.4 309.613 306.996 312.855C305.659 313.84 304.899 315.375 303.503 316.339C300.06 318.718 296.646 321.146 293.308 323.67C289.945 326.213 286.201 328.068 282.523 330.069C280.714 331.053 278.944 332.152 277.212 333.268C274.924 334.742 272.298 335.204 269.85 336.176C266.888 337.352 263.928 338.67 260.841 339.352C258.47 339.875 256.104 340.476 253.713 340.936C250.95 341.466 248.348 342.597 245.506 342.895C239.978 343.476 234.491 344.567 228.917 344.548C226.762 344.541 224.583 345.085 222.422 344.435C221.831 344.257 221.169 344.393 220.528 344.52C218.961 344.831 217.366 345.074 215.826 344.398C214.55 343.837 213.29 344.65 212.043 344.395C209.627 343.901 207.162 343.561 204.751 343.153C201.13 342.54 197.745 340.961 194.045 340.798C192.546 340.732 191.425 339.674 190.166 339.013C189.231 338.522 188.319 338.212 187.269 338.42C186.561 338.559 185.883 338.39 185.229 338.166C181.46 336.874 177.668 335.62 174.224 333.563C172.253 332.385 169.926 331.92 168.049 330.641C164.588 328.284 160.803 326.424 157.533 323.778C157.326 323.611 157.135 323.366 156.897 323.303C154.159 322.566 152.322 320.563 150.254 318.808C146.851 315.919 143.432 313.078 140.358 309.813C138.362 307.693 136.566 305.4 134.466 303.351C132.849 301.774 131.224 300.007 130.204 297.841C129.476 296.296 128.251 295.053 127.115 293.791C125.493 291.991 124.334 289.943 123.265 287.776C121.176 283.538 118.751 279.463 116.717 275.2C114.688 270.949 112.58 266.714 111.572 262.035C111.047 259.601 110.196 257.234 109.446 254.851C108.07 250.478 107.314 245.972 106.769 241.445C106.569 239.788 105.874 238.301 105.711 236.639C105.399 233.448 106.113 230.181 105.38 227.094C104.571 223.689 105.992 220.476 105.593 217.161C105.123 213.263 105.775 209.361 106.427 205.601C106.971 202.471 107.316 199.217 108.526 196.157C109.337 194.106 110.057 191.933 110.439 189.762C111.004 186.546 112.384 183.706 113.813 180.867C114.605 179.295 115.387 177.766 115.746 176.006C116.353 173.023 117.785 170.32 119.061 167.596C120.114 165.35 121.782 163.437 123.007 161.247C124.367 158.812 126.087 156.562 127.799 154.347C129.545 152.088 131.717 150.129 133.27 147.757C136.536 142.766 141.407 139.398 145.423 135.177C145.925 134.648 146.619 134.306 147.203 133.85C151.809 130.26 156.45 126.71 161.383 123.583C163.891 121.993 166.62 120.757 169.202 119.278C171.787 117.797 174.411 116.403 177.241 115.465C179.003 114.881 180.535 113.818 182.205 113.063C184.902 111.844 187.744 111.041 190.504 110.366C194.887 109.294 199.043 107.492 203.551 106.759C206.377 106.299 209.316 106.276 212.077 105.241C213.568 104.682 215.237 104.8 216.832 104.905C221.085 105.185 225.321 104.618 229.563 104.699C232.959 104.764 236.351 105.082 239.744 105.295C241.597 105.411 243.452 105.677 245.301 105.638C248.671 105.566 251.897 106.671 254.883 107.709C258.772 109.06 262.769 110.185 266.603 111.765C269.243 112.853 271.819 114.127 274.576 114.972C276.175 115.463 277.7 116.343 279.108 117.274C281.816 119.065 284.777 120.43 287.405 122.352C288.209 122.94 289.166 123.353 290.103 123.717C292.277 124.561 294.105 125.832 295.584 127.651C296.244 128.463 297.421 128.458 298.251 129.044C301.16 131.098 303.761 133.524 306.452 135.842C306.812 136.152 307.068 136.595 307.452 136.865C312.48 140.404 316.063 145.306 319.948 149.941C321.78 152.127 323.056 154.595 324.477 157.02C325.606 158.945 327.376 160.482 328.675 162.323C329.917 164.085 331.055 165.953 331.639 168.071C331.947 169.189 332.673 170.062 333.338 170.936C334.789 172.84 335.531 175.077 336.275 177.264C337.162 179.873 338.86 182.183 339.109 185.028C339.147 185.461 339.488 185.9 339.771 186.272C340.436 187.146 340.884 188.092 340.888 189.203C340.898 191.719 342.371 193.831 342.794 196.247C343.46 200.052 344.777 203.724 344.931 207.647C345.005 209.536 345.625 211.389 345.833 213.295C345.995 214.778 346.198 216.23 346.106 217.736C345.965 220.058 346.545 222.337 346.469 224.696C346.277 230.621 346.362 236.566 345.282 242.415C344.715 245.491 343.833 248.52 342.922 251.518C342.426 253.15 342.226 254.834 341.764 256.474C341.153 258.637 340.582 260.756 339.237 262.598C339.061 262.84 338.891 263.239 338.968 263.488C339.789 266.14 337.952 268.052 337.087 270.209C336.455 271.785 335.72 273.298 335.39 274.992C335.064 276.663 334.473 278.234 333.406 279.644C331.346 282.364 330.036 285.536 328.308 288.459C327.823 289.28 327.219 290.03 326.669 290.813Z" fill="black"/>
    <path fill-rule="evenodd" clip-rule="evenodd" d="M146.379 350.495C144.984 349.013 143.373 348.04 141.443 347.607C141.04 347.517 140.569 347.351 140.31 347.06C138.553 345.087 136.124 343.975 134.199 342.227C132.379 340.573 130.319 339.264 128.227 337.995C127.866 337.776 127.437 337.568 127.215 337.236C125.424 334.563 122.572 332.92 120.64 330.363C119.498 328.85 118.081 327.519 116.662 326.247C114.168 324.011 112.809 320.954 110.785 318.378C109.243 316.415 107.364 314.784 105.807 312.836C104.859 311.649 104.234 310.455 104.082 309C104.007 308.276 103.755 307.846 103.021 307.628C101.849 307.279 101.167 306.487 100.599 305.337C99.5906 303.295 98.2947 301.39 97.0657 299.462C94.6497 295.674 92.9213 291.54 91.0656 287.478C89.5871 284.242 88.4117 280.868 87.0536 277.575C85.9382 274.868 85.7405 271.891 84.5572 269.213C83.1933 266.127 82.7017 262.782 82.0343 259.548C81.1091 255.066 79.9237 250.623 79.4864 246.013C79.229 243.294 78.9627 240.568 78.7953 237.841C78.2726 229.332 78.1478 220.825 79.1491 212.335C79.7881 206.916 80.7197 201.562 82.4633 196.377C82.5794 196.032 82.7375 195.68 82.9612 195.398C83.2589 195.023 83.6444 194.655 84.1848 194.945C84.6247 195.18 84.7234 195.681 84.5718 196.067C82.9251 200.256 83.6652 204.924 81.9473 209.097C81.789 209.482 81.6215 209.954 81.7039 210.333C82.6165 214.536 81.774 218.767 81.2599 222.839C80.675 227.474 81.9049 232.003 81.0695 236.614C80.5463 239.502 81.5833 242.521 82.1149 245.438C82.4015 247.011 82.2848 248.497 82.1669 250.016C82.0429 251.616 82.5839 253.039 83.1152 254.482C83.8965 256.603 83.9544 258.856 84.3394 261.05C85.0187 264.926 86.8219 268.519 87.4705 272.388C88.1033 276.163 90.4054 279.151 91.7241 282.573C93.9336 288.305 97.0436 293.572 99.7191 299.059C101.086 301.861 103.066 304.349 104.229 307.289C104.446 307.835 105.043 308.259 105.527 308.666C107.819 310.594 108.89 313.369 110.513 315.76C110.688 316.018 110.865 316.319 111.118 316.472C113.021 317.619 113.939 319.586 115.231 321.254C117.177 323.766 119.287 326.143 121.471 328.462C123.767 330.9 126.3 333.071 128.707 335.382C129.628 336.266 130.423 337.275 131.598 337.83C134.478 339.189 136.462 341.737 139.076 343.433C141.943 345.295 144.721 347.333 147.889 348.67C148.857 349.078 149.507 349.84 150.392 350.322C154.305 352.452 158.071 354.847 162.059 356.848C163.301 357.472 164.506 358.063 165.963 358.038C166.856 358.023 167.923 358.153 168.52 358.789C170.611 361.021 173.398 361.465 176.15 362.013C178.684 362.518 180.745 364.231 183.295 364.691C185.746 365.133 188.118 365.978 190.633 366.121C191.303 366.159 192.247 366.219 192.246 367.072C192.246 368.138 191.191 367.942 190.511 367.951C189.348 367.969 188.192 367.893 187.053 367.507C184.641 366.693 182.043 366.674 179.629 365.786C178.778 365.473 177.92 365.273 177.203 364.676C176.84 364.373 176.422 364.003 175.989 363.939C172.505 363.426 169.548 361.61 166.365 360.322C162.929 358.93 159.524 357.447 156.123 355.985C152.683 354.506 149.322 352.78 146.379 350.495Z" fill="black"/>
    <path fill-rule="evenodd" clip-rule="evenodd" d="M333.402 318.783C331.147 321.168 328.977 323.154 327.196 325.442C325.762 327.285 323.872 328.636 322.461 330.525C321.268 332.122 319.319 333.188 317.615 334.359C316.11 335.393 314.824 336.674 313.531 337.913C311.883 339.493 310.034 340.693 308.016 341.657C307.206 342.043 306.666 342.68 306.013 343.21C304.596 344.36 302.902 345.037 301.358 345.967C300.522 346.47 299.781 347.003 299.146 347.75C298.746 348.22 298.193 348.645 297.621 348.872C292.656 350.837 288.182 353.748 283.433 356.124C281.404 357.139 279.2 357.809 277.071 358.624C276.725 358.757 276.289 358.738 276.008 358.943C273.862 360.513 271.157 360.344 268.797 361.261C267.957 361.588 267.13 361.951 266.304 362.304C263.735 363.403 261.022 363.929 258.297 364.425C257.932 364.491 257.348 364.491 257.251 364.701C256.503 366.312 255.218 365.602 254.054 365.553C251.504 365.446 249.111 366.27 246.709 366.942C245.702 367.224 244.739 367.381 243.725 367.205C241.631 366.841 239.577 367.171 237.55 367.61C236.481 367.841 235.439 367.875 234.377 367.75C233.661 367.667 232.704 367.773 232.67 366.73C232.637 365.749 233.378 365.062 234.263 365.015C236.174 364.913 238.066 364.455 239.997 364.674C240.472 364.728 240.988 364.857 241.423 364.734C243.625 364.111 245.929 364.035 248.116 363.602C251.22 362.989 254.452 362.837 257.456 361.628C258.814 361.081 260.271 360.653 261.823 360.827C262.324 360.883 262.94 360.774 263.365 360.515C266.109 358.837 269.312 358.579 272.27 357.575C274.787 356.721 277.032 355.158 279.687 354.676C282.008 354.255 283.717 352.486 285.864 351.853C288.191 351.168 290.051 349.739 292.154 348.79C294.899 347.551 297.495 346.259 299.717 344.225C300.18 343.801 300.757 343.448 301.344 343.221C303.72 342.298 305.436 340.581 307.343 338.961C309.25 337.34 311.343 335.646 313.849 334.769C315.424 334.219 316.242 332.692 317.33 331.619C319.992 328.995 323.091 326.872 325.526 323.962C327.349 321.782 329.563 319.9 331.373 317.666C331.406 317.625 331.443 317.584 331.486 317.554C332.133 317.098 332.855 316.395 333.597 317.118C334.286 317.791 333.595 318.48 333.402 318.783Z" fill="black"/>
    <path fill-rule="evenodd" clip-rule="evenodd" d="M365.034 278.909C362.889 280.09 363.194 282.418 362.32 284.127C360.35 287.978 358.416 291.848 356.54 295.745C354.881 299.188 352.741 302.318 350.461 305.353C349.344 306.839 348.307 308.362 347.361 309.96C346.933 310.682 346.384 311.348 345.809 311.962C345.391 312.407 344.814 312.331 344.357 311.947C343.895 311.559 344.034 311.103 344.324 310.664C346.297 307.671 348.09 304.565 350.347 301.756C352.272 299.36 353.766 296.613 355.177 293.931C356.984 290.493 358.783 287.024 360.436 283.497C361.037 282.214 361.259 280.751 361.861 279.469C363.202 276.614 364.636 273.801 366.107 271.012C366.876 269.554 366.696 267.924 367.102 266.396C368.16 262.405 369.122 258.38 369.923 254.327C370.476 251.527 370.555 248.631 371.387 245.879C371.627 245.087 371.466 243.73 372.702 243.879C374.139 244.053 374.078 245.481 373.866 246.458C373.184 249.6 373.039 252.886 371.586 255.835C371.472 256.067 371.377 256.344 371.386 256.597C371.513 260.172 369.773 263.267 368.926 266.59C368.047 270.036 366.635 273.284 365.211 276.522C364.851 277.343 365.319 278.211 365.034 278.909Z" fill="black"/>
    <path fill-rule="evenodd" clip-rule="evenodd" d="M372.588 197.257C372.948 197.534 373.452 197.711 373.246 198.258C372.539 200.134 373.471 201.946 373.369 203.795C373.358 204.008 373.308 204.296 373.42 204.424C375.177 206.44 374.327 208.983 374.525 211.232C374.983 216.459 376.375 221.616 375.905 226.908C375.609 230.249 375.816 233.633 375.011 236.933C374.811 237.753 375.246 238.506 375.205 239.313C375.165 240.083 374.946 240.74 374.09 240.83C373.184 240.925 373.148 240.188 373.039 239.542C372.815 238.205 373.15 236.869 373.093 235.546C372.914 231.385 373.34 227.231 373.291 223.075C373.264 220.79 373.526 218.396 372.956 216.246C371.64 211.282 372.324 206.034 370.703 201.137C370.412 200.261 370.546 199.234 370.518 198.275C370.501 197.689 370.468 197.029 371.087 196.707C371.758 196.358 372.136 197.015 372.588 197.257Z" fill="black"/>
    <path fill-rule="evenodd" clip-rule="evenodd" d="M342.113 316.415C340.056 319.304 337.417 321.723 335.503 324.731C334.987 325.542 333.978 326.029 333.209 326.681C330.578 328.913 328.595 331.768 325.83 333.908C320.958 337.679 316.372 341.81 311.472 345.545C310.239 346.485 308.62 347.111 307.188 347.9C306.795 348.117 306.167 348.258 305.833 347.775C305.421 347.181 306.07 346.974 306.398 346.665C309.307 343.924 312.868 342.025 315.966 339.522C317.204 338.521 317.684 336.864 319.289 336.182C323.006 334.603 325.102 331.145 328.02 328.634C332.799 324.523 336.495 319.424 340.635 314.731C341.089 314.217 341.605 313.749 342.143 313.321C342.435 313.089 342.849 313.009 343.197 313.322C343.535 313.627 343.53 314.031 343.346 314.369C342.965 315.068 342.527 315.735 342.113 316.415Z" fill="black"/>
    <path fill-rule="evenodd" clip-rule="evenodd" d="M163.529 351.928C164.068 352.533 164.454 352.824 164.94 352.921C169.262 353.787 172.915 356.345 176.903 358.057C177.494 358.311 178.193 358.699 177.85 359.447C177.495 360.219 176.727 360.265 175.968 359.858C173.156 358.347 169.898 358.108 167.141 356.435C166.399 355.984 166.152 357.489 165.398 356.865C164.872 356.431 165.254 355.599 164.561 355.078C163.245 354.089 161.697 353.685 160.254 353.042C159.181 352.564 158.17 351.96 157.113 351.503C154.961 350.574 153.457 348.759 151.465 347.644C150.779 347.259 150.38 346.665 150.716 345.951C151.054 345.232 151.803 345.492 152.394 345.66C154.325 346.206 155.766 347.672 157.51 348.584C159.63 349.692 161.699 350.906 163.529 351.928Z" fill="black"/>
    <path fill-rule="evenodd" clip-rule="evenodd" d="M252.971 369.759C252.197 369.191 252.357 368.454 253.404 367.971C255.067 367.205 256.867 366.911 258.621 366.484C263.52 365.29 268.399 364.07 273.171 362.361C276.141 361.297 279.005 360.043 281.86 358.728C282.553 358.408 283.411 358.169 283.806 359.064C284.248 360.064 283.437 360.453 282.665 360.809C279.855 362.103 277.153 363.782 274.221 364.622C271.45 365.417 268.967 367.215 265.895 367.074C264.262 366.998 262.812 368.122 261.15 368.373C259.061 368.688 257.018 369.361 254.963 369.911C254.262 370.099 253.604 370.163 252.971 369.759Z" fill="black"/>
    <path fill-rule="evenodd" clip-rule="evenodd" d="M353.744 286.273C354.43 285.69 354.75 284.878 355.023 284.071C356.466 279.812 358.657 275.881 360.234 271.679C360.913 269.87 361.761 268.135 361.927 266.162C361.992 265.401 362.285 264.694 362.701 264.064C363.035 263.557 363.508 263.121 364.181 263.346C364.872 263.577 364.995 264.227 364.886 264.829C364.705 265.831 364.492 266.838 364.168 267.799C363.128 270.885 361.538 273.762 360.837 276.98C360.648 277.847 360.089 278.56 359.448 279.109C358.414 279.996 357.742 281.186 357.591 282.391C357.175 285.716 354.492 287.865 353.568 290.899C353.386 291.496 352.756 291.797 352.096 291.543C351.336 291.251 351.402 290.541 351.651 290.026C352.272 288.736 352.707 287.327 353.744 286.273Z" fill="black"/>
    <path fill-rule="evenodd" clip-rule="evenodd" d="M337.639 311.068C342.15 306.597 344.64 301.212 348.274 296.67C348.759 296.064 348.832 295.182 349.519 294.688C349.995 294.346 350.519 293.925 351.083 294.278C351.724 294.68 351.415 295.365 351.147 295.829C350.018 297.782 348.921 299.769 347.619 301.608C344.889 305.462 342.044 309.235 339.221 313.023C338.95 313.387 338.528 313.666 338.128 313.9C337.728 314.135 337.25 314.363 336.836 313.943C336.491 313.595 336.612 313.145 336.784 312.766C337.106 312.05 337.49 311.361 337.639 311.068Z" fill="black"/>
    <path fill-rule="evenodd" clip-rule="evenodd" d="M218.056 371.543C217.677 371.258 217.403 371.053 217.473 370.677C217.542 370.311 217.856 370.19 218.166 370.103C218.839 369.915 219.522 369.831 220.231 369.908C225.05 370.429 229.856 369.758 234.676 370.03C235.563 370.08 236.457 369.705 237.358 369.635C238.097 369.577 239.048 369.561 239.161 370.535C239.257 371.369 238.31 371.425 237.747 371.516C234.381 372.058 231.028 372.674 227.589 372.755C224.791 372.821 222.017 372.806 219.292 371.993C218.829 371.855 218.381 371.662 218.056 371.543Z" fill="black"/>
    <path fill-rule="evenodd" clip-rule="evenodd" d="M368.232 230.079C368.565 229.673 368.956 229.406 369.468 229.521C370.088 229.659 370.283 230.166 370.271 230.72C370.195 234.04 370.466 237.389 369.666 240.651C369.486 241.384 369.196 242.165 368.3 242.062C367.311 241.949 367.417 241.099 367.424 240.344C367.448 237.603 368.246 234.909 367.696 232.126C367.558 231.429 367.867 230.691 368.232 230.079Z" fill="black"/>
    <path fill-rule="evenodd" clip-rule="evenodd" d="M368.307 209.996C368.759 209.429 369.302 209.283 369.57 209.955C370.258 211.689 370.985 213.411 370.702 215.43C370.471 217.078 370.311 218.758 370.676 220.386C370.892 221.346 370.425 221.891 369.619 222.086C368.731 222.301 368.598 221.545 368.523 220.895C368.21 218.19 367.939 215.479 367.612 212.776C367.488 211.746 367.96 210.884 368.307 209.996Z" fill="black"/>
    <path fill-rule="evenodd" clip-rule="evenodd" d="M367.652 245.075C368.23 244.518 368.66 244.721 368.918 245.299C369.323 246.206 369.285 247.182 368.893 248.056C367.815 250.459 367.87 253.117 367.089 255.582C366.869 256.277 366.78 257.013 366.563 257.709C366.434 258.122 366.101 258.447 365.627 258.422C365.053 258.391 364.842 257.934 364.765 257.452C364.582 256.314 364.92 255.24 365.454 254.281C365.933 253.421 366.12 252.557 366.184 251.597C366.322 249.551 367.573 247.73 367.458 245.618C367.448 245.428 367.594 245.229 367.652 245.075Z" fill="black"/>
    <path fill-rule="evenodd" clip-rule="evenodd" d="M178.661 360.441C178.479 360.238 177.716 359.939 178.101 359.233C178.482 358.536 179.257 358.842 179.706 359.09C182.329 360.537 185.313 360.822 188.114 361.685C188.867 361.917 189.991 362.307 189.876 363.078C189.75 363.921 188.592 363.501 187.904 363.56C186.139 363.711 184.481 363.361 182.987 362.348C181.742 361.503 180.003 361.765 178.661 360.441Z" fill="black"/>
    <path fill-rule="evenodd" clip-rule="evenodd" d="M296.19 353.313C298.309 351.909 300.427 350.189 303.145 349.683C303.497 349.618 303.883 349.566 304.087 349.925C304.322 350.337 304.117 350.738 303.807 351.017C303.392 351.389 302.93 351.717 302.46 352.016C300.868 353.03 299.258 354.015 297.665 355.026C296.984 355.458 296.4 355.319 295.923 354.793C295.509 354.334 295.745 353.862 296.19 353.313Z" fill="black"/>
    <path fill-rule="evenodd" clip-rule="evenodd" d="M284.197 359.204C283.723 358.797 283.85 358.24 284.421 358.131C286.905 357.656 288.946 356.167 291.238 355.269C291.727 355.078 292.255 355.067 292.483 355.676C292.692 356.233 292.448 356.759 291.909 356.857C289.797 357.238 288.219 358.819 286.18 359.354C285.507 359.53 284.889 359.607 284.197 359.204Z" fill="black"/>
    <path fill-rule="evenodd" clip-rule="evenodd" d="M277.806 276.601C279.465 275.02 281.585 273.91 282.871 271.905C283.092 271.561 283.659 271.096 282.949 270.743C281.699 270.124 280.534 270.789 280.428 272.206C280.343 273.337 280.039 274.254 279.025 274.896C278.44 275.266 278.046 275.862 277.806 276.601ZM169.865 183.059C166.911 185.83 165.002 189.259 163.531 192.966C165.081 191.339 165.55 188.985 167.379 187.546C168.819 186.413 169.231 184.671 169.865 183.059ZM200.821 160.076C198.456 159.368 190.894 163.207 190.406 165.23C193.753 163.3 197.063 161.523 200.821 160.076ZM168.078 180.417C168.555 179.552 169.156 178.756 169.966 178.294C171.156 177.616 171.845 176.473 172.833 175.625C173.716 174.867 173.834 173.61 174.753 172.891C175.136 172.591 175.877 172.247 175.248 171.694C174.708 171.218 174.103 171.685 173.796 172.221C173.097 173.442 171.942 174.321 171.241 175.49C170.233 177.173 168.685 178.492 168.078 180.417ZM239.838 293.582C237.307 293.33 234.964 294.408 232.504 294.077C232.37 294.059 232.196 294.172 232.073 294.267C231.654 294.586 231.429 295.056 231.608 295.529C231.793 296.015 232.247 295.687 232.594 295.656C233.443 295.581 234.305 295.399 235.14 295.479C237.061 295.662 238.385 294.492 239.838 293.582ZM163.184 250.278C163.477 250.491 163.749 250.879 164.155 250.674C164.663 250.418 164.418 249.925 164.359 249.527C164.313 249.213 164.212 248.902 164.096 248.605C163.435 246.9 162.204 245.409 162.29 243.418C162.308 242.977 162.067 242.205 161.357 242.376C160.72 242.53 160.697 243.235 160.902 243.729C161.647 245.518 161.958 247.416 162.413 249.278C162.522 249.726 162.873 249.985 163.184 250.278ZM292.555 196.873C292.898 196.446 292.811 195.963 292.618 195.635C291.182 193.184 290.544 190.274 288.388 188.236C287.749 187.633 287.22 186.904 287.275 186.018C287.337 185.02 286.707 184.462 286.199 183.799C285.972 183.504 285.71 183.149 285.286 183.349C284.792 183.581 285.066 184.004 285.188 184.323C286.01 186.469 287.47 188.241 288.791 190.06C290.001 191.727 290.928 193.467 291.461 195.425C291.642 196.09 291.975 196.54 292.555 196.873ZM283.735 182.081C283.532 180.218 275.966 171.714 274.279 171.553C277.614 174.807 279.793 179.089 283.735 182.081ZM179.462 277.973C179.394 278.657 179.837 278.99 180.183 279.377C182.501 281.969 185.6 283.586 188.215 285.807C188.611 286.144 189.159 286.624 189.597 286.087C190.033 285.553 189.332 285.163 189.054 284.755C188.912 284.546 188.661 284.405 188.445 284.254C185.478 282.176 182.509 280.103 179.462 277.973ZM260.929 285.628C262.962 285.79 264.184 284.834 264.915 283.168C265.232 282.444 265.906 282.402 266.511 282.282C268.951 281.798 269.799 279.559 271.291 277.943C270.05 278.805 268.501 278.865 267.324 279.794C265.601 281.154 264.458 283.214 262.186 283.932C261.491 284.151 260.9 284.705 260.929 285.628ZM259.324 286.715C258.623 286.284 258.097 286.588 257.542 286.745C256.023 287.172 254.854 288.249 253.453 288.894C249.874 290.54 246.127 291.651 242.281 292.46C242.177 292.482 242.07 292.494 241.968 292.52C241.703 292.59 241.429 292.693 241.408 293.001C241.384 293.351 241.706 293.388 241.953 293.473C242.983 293.826 244.007 293.634 244.904 293.17C247.571 291.789 250.575 291.398 253.299 290.232C255.417 289.326 257.588 288.44 259.324 286.715ZM178.126 169.654C178.848 169.519 179.361 169.41 179.88 169.33C180.414 169.247 181.101 168.63 181.443 169.342C181.714 169.907 180.863 169.94 180.525 170.223C180.214 170.484 179.954 170.807 180.178 171.179C180.458 171.645 180.845 171.353 181.125 171.125C182.87 169.704 184.758 168.538 186.866 167.724C187.336 167.543 187.775 167.207 187.737 166.498C186.504 166.64 185.551 167.251 184.52 167.647C183.862 167.9 183.222 167.759 182.834 167.125C182.55 166.66 182.371 166.099 182.926 165.69C183.647 165.159 184.357 164.56 185.167 164.218C187.058 163.42 188.743 162.232 190.309 161.019C192.624 159.224 195.138 158.186 197.94 157.646C198.846 157.472 199.389 156.951 199.637 156.052C198.555 155.671 197.866 156.221 197.149 156.68C196.383 157.17 195.535 157.505 194.812 156.751C193.892 155.793 193.066 156.022 192.118 156.64C191.226 157.221 190.289 157.734 189.361 158.257C188.559 158.709 187.671 159.062 188.284 160.3C188.446 160.627 188.155 161.027 187.785 161.209C186.946 161.621 186.416 162.387 185.721 162.959C184.483 163.979 182.953 164.518 181.552 165.271C181.216 165.451 180.771 165.406 180.572 165.002C180.34 164.532 180.744 164.351 181.07 164.164C181.576 163.873 182.066 163.57 182.081 162.745C179.866 162.818 179.263 165.038 177.619 165.746C179.77 165.724 179.771 165.731 178.126 169.654ZM156.001 229.049C155.262 230.784 154.694 232.519 155.596 234.361C155.863 234.907 156.099 235.499 155.954 236.056C155.252 238.75 156.675 241.129 157.074 243.65C157.385 245.609 158.512 247.378 159.001 249.336C159.296 250.517 159.26 251.782 159.956 252.87C161.039 254.563 161.735 256.45 162.569 258.269C163.52 260.345 164.444 262.558 166.148 264.055C168.106 265.775 169.325 267.892 170.566 270.067C171.073 270.955 171.721 271.739 172.742 272.099C173.047 272.206 173.408 272.344 173.629 272.053C173.872 271.731 173.547 271.432 173.359 271.218C172.621 270.376 171.741 269.643 171.096 268.739C167.645 263.908 163.719 259.339 162.351 253.321C162.272 252.972 162.005 252.662 161.81 252.345C160.636 250.43 159.478 248.527 159.574 246.134C159.601 245.463 159.379 244.759 159.168 244.103C158.399 241.724 157.327 239.484 157.03 236.901C156.885 235.647 157.287 234.382 156.86 233.212C156.368 231.862 155.98 230.517 156.001 229.049ZM248.968 159.453C249.686 160.46 250.902 160.022 251.732 160.566C253.335 161.617 254.994 162.586 256.656 163.544C260.614 165.827 264.656 167.961 268.055 171.107C270.404 173.282 273.045 175.203 274.961 177.76C276.527 179.85 278.399 181.654 279.962 183.748C282.313 186.897 285.023 189.761 286.437 193.54C287.187 195.546 289.039 197.034 289.233 199.346C289.271 199.791 289.762 200.27 290.294 200.118C290.985 199.921 290.555 199.357 290.536 198.91C290.483 197.601 289.763 196.445 289.191 195.455C287.071 191.788 285.032 188.044 282.324 184.745C280.979 183.107 280.47 180.88 278.594 179.597C278.047 179.223 277.693 178.556 277.272 178.006C276.335 176.784 275.379 175.467 274.266 174.523C271.189 171.914 267.818 169.653 264.574 167.238C262.748 165.878 260.596 164.91 258.887 163.533C256.406 161.533 253.554 160.739 250.75 159.667C250.25 159.475 249.692 159.134 248.968 159.453ZM198.576 286.291C198.603 286.052 198.337 285.754 197.931 285.551C195.704 284.438 193.573 283.119 191.437 281.875C187.025 279.305 183.03 276.06 179.607 272.216C178.402 270.862 176.786 269.892 175.873 268.288C174.684 266.196 173.1 264.39 171.744 262.42C171.279 261.744 170.566 261.341 169.879 260.928C169.477 260.687 169.047 260.677 168.672 260.959C168.181 261.327 168.528 261.73 168.699 262.097C169.084 262.926 169.531 263.729 170.284 264.282C172.521 265.928 173.813 268.398 175.617 270.422C176.484 271.394 177.127 272.698 175.724 273.919C175.377 274.222 175.248 274.714 175.603 275.07C176.401 275.868 177.113 276.814 178.428 277.211C177.978 275.966 177.594 274.904 177.116 273.581C179.976 274.452 181.511 276.696 183.57 278.182C185.333 279.456 186.726 281.527 188.653 282.224C192.059 283.457 194.372 287.164 198.576 286.291ZM159.975 186.192C160.386 186.488 160.572 186.369 160.753 186.265C161.227 185.993 161.742 185.677 162.226 186.122C162.742 186.595 162.546 187.216 162.317 187.768C162.092 188.31 161.829 188.838 161.544 189.351C160.141 191.872 158.209 194.151 158.058 197.236C158.038 197.634 157.831 198.105 157.556 198.396C155.705 200.357 155.387 202.983 154.673 205.37C152.861 211.428 151.647 217.627 151.485 223.981C151.462 224.905 151.414 226.52 152.193 226.518C153.205 226.516 153.153 225.029 153.251 224.032C153.529 221.21 153.428 218.344 154.268 215.586C154.396 215.167 154.366 214.654 154.963 214.74C155.434 214.807 155.368 215.233 155.385 215.629C155.458 217.287 155.937 218.919 155.443 220.632C156.167 220.558 156.332 220.171 156.346 219.824C156.442 217.438 156.738 215.099 157.514 212.818C157.73 212.181 158.216 211.104 157.453 210.779C156.763 210.484 156.63 211.67 156.198 212.155C155.986 212.394 155.821 212.724 155.47 212.724C155.163 212.724 155.033 212.442 154.989 212.168C154.736 210.602 154.325 209.094 155.078 207.473C156.332 204.776 157.556 202.04 158.453 199.212C159.415 196.177 160.04 193.051 162.643 190.858C162.956 190.595 163.32 190.163 163.326 189.803C163.353 188.099 164.363 186.83 165.056 185.407C165.532 184.428 166.184 183.598 166.804 182.73C167.048 182.389 167.377 181.965 167.016 181.577C166.581 181.11 166.13 181.527 165.726 181.749C165.543 181.849 165.406 182.03 165.245 182.17C165.019 182.365 164.837 182.785 164.479 182.558C164.057 182.291 164.335 181.883 164.455 181.552C164.983 180.085 165.572 178.667 166.895 177.682C167.669 177.105 167.985 176.219 168.129 175.244C165.12 178.691 161.875 181.952 159.975 186.192ZM230.705 155.409C225.367 153.639 207.61 155.646 205.365 158.227C205.961 158.57 206.606 158.479 207.234 158.473C207.939 158.466 208.794 158.39 208.976 159.23C209.19 160.221 208.234 160.324 207.568 160.642C205.534 161.613 203.177 161.694 201.239 162.849C199.176 164.079 196.96 164.994 194.851 166.131C190.271 168.601 185.879 171.367 182.09 174.871C178.782 177.931 175.388 180.933 172.468 184.435C170.306 187.029 168.431 189.799 166.891 192.729C165.346 195.668 163.81 198.673 162.95 201.942C162.408 204 161.582 205.964 160.769 207.93C160.619 208.291 160.448 208.831 161.015 209.032C161.463 209.19 161.881 208.999 162.003 208.488C162.683 205.636 163.739 202.927 164.846 200.214C166.019 197.342 167.053 194.449 169.365 192.242C169.912 191.719 170.497 191.074 170.472 190.338C170.384 187.749 172.474 186.169 173.945 185.127C177.177 182.836 179.522 179.688 182.608 177.324C183.311 176.786 183.888 175.338 184.871 176.233C185.718 177.005 184.533 177.913 184.102 178.72C182.77 181.213 180.094 182.451 178.596 184.883C176.208 188.762 172.358 191.622 170.592 195.982C170.572 196.03 170.529 196.069 170.495 196.109C168.673 198.281 167.974 201.019 167.05 203.573C165.992 206.495 165.177 209.535 164.334 212.545C163.355 216.041 162.239 219.451 162.183 223.117C162.134 226.347 161.621 229.594 162.604 232.78C162.771 233.318 162.651 234.106 163.448 234.127C164.225 234.148 164.227 233.35 164.406 232.829C164.696 231.984 164.533 231.139 164.243 230.317C164.101 229.916 163.877 229.527 163.825 229.116C163.725 228.329 163.874 227.558 164.75 227.295C165.629 227.03 166.109 227.55 166.482 228.315C167.403 230.209 167.702 232.288 167.399 234.255C167.148 235.881 167.367 237.295 167.766 238.793C168.382 241.108 169.05 243.404 169.859 245.66C170.102 246.336 170.152 247.094 169.428 247.519C168.84 247.865 168.332 247.367 168.082 246.952C166.967 245.105 165.444 243.422 165.667 241.005C165.765 239.939 165.58 238.871 165.242 237.843C165.038 237.22 164.84 236.49 163.996 236.681C163.13 236.878 162.993 237.68 163.23 238.36C164.526 242.078 164.96 246.079 166.962 249.571C167.507 250.522 168.232 251.327 168.586 252.463C169.246 254.575 170.158 256.601 171.569 258.414C172.678 259.84 174.059 261.123 174.939 262.618C177.046 266.198 180.482 268.634 182.636 272.128C182.823 272.431 183.17 272.65 183.471 272.868C185.844 274.586 188.283 276.221 190.579 278.036C191.843 279.035 193.331 279.676 194.537 280.713C197.126 282.94 200.333 283.967 203.484 284.671C204.992 285.008 206.417 285.329 207.72 286.083C208.72 286.661 209.793 286.889 210.871 287.197C213.573 287.967 216.415 287.223 219.114 288.042C219.97 288.301 220.942 288.527 221.794 288.381C225.72 287.708 229.738 288.385 233.666 287.299C235.904 286.68 238.432 287.456 240.684 286.345C241.155 286.112 241.699 286.014 242.221 285.904C242.629 285.818 242.953 286.013 243.147 286.382C243.348 286.766 243.265 287.141 242.951 287.398C242.584 287.698 242.19 288.067 241.754 288.165C239.549 288.657 237.276 288.665 235.057 289.204C233.054 289.69 230.904 289.591 228.912 290.106C227.085 290.58 225.164 290.854 223.409 290.821C219.915 290.754 216.324 290.864 212.923 289.764C211.272 289.23 209.561 289.185 207.909 288.819C206.003 288.395 204.171 287.61 202.333 286.913C201.378 286.551 200.545 286.556 199.699 287.147C200.049 287.789 200.655 287.757 201.106 288.006C203.107 289.111 205.372 289.315 207.521 289.891C208.914 290.264 210.2 290.917 211.642 291.168C216.643 292.038 221.679 292.229 226.737 292.183C227.315 292.178 227.955 292.489 228.465 292.329C231.36 291.42 234.402 291.301 237.345 290.606C239.911 290.001 242.603 289.953 245.135 289.015C249.994 287.215 254.786 285.232 259.323 282.761C262.531 281.014 266.477 280.167 268.327 276.427C268.429 276.221 268.825 276.175 268.97 275.973C269.826 274.786 271.61 274.853 272.338 273.707C273.722 271.529 274.89 269.222 276.988 267.594C277.187 267.439 277.317 267.167 277.424 266.926C278.349 264.844 280.495 263.679 281.412 261.571C281.697 260.914 282.41 260.702 283.035 261.211C283.781 261.82 283.287 262.351 282.772 262.786C281.75 263.648 281.155 264.751 280.799 266.018C280.7 266.37 280.577 266.824 280.312 267.001C278.203 268.411 277.655 270.616 277.151 273.042C278.266 272.12 278.795 270.73 280.199 270.355C280.338 270.317 280.469 270.023 280.498 269.833C280.872 267.377 282.425 265.463 283.894 263.718C285.067 262.326 286.086 260.941 286.857 259.325C288.05 256.824 289.822 254.645 290.776 251.999C291.543 249.87 293.389 248.313 293.571 245.765C293.744 243.369 294.705 241.007 295.387 238.692C295.928 236.856 295.831 234.936 296.58 233.146C297.095 231.914 297.149 230.424 295.757 229.338C295.31 229.802 295.33 230.359 295.202 230.854C294.745 232.61 294.753 234.43 294.329 236.229C293.737 238.738 292.771 241.217 292.567 243.799C292.375 246.218 290.906 248.103 290.296 250.307C289.709 252.425 287.919 253.971 287.675 256.186C287.551 257.309 286.807 257.999 286.17 258.761C285.609 259.432 284.762 259.692 284 259.239C283.139 258.726 283.537 257.885 283.886 257.243C284.393 256.311 285.219 255.516 285.568 254.54C286.485 251.976 287.997 249.703 288.987 247.188C289.38 246.19 290.521 245.362 290.326 244.348C289.91 242.183 291.284 240.527 291.593 238.581C292.003 235.99 293.392 233.545 292.369 230.774C292.135 230.141 291.944 229.286 292.292 228.573C292.937 227.255 292.773 225.87 292.782 224.487C292.796 222.468 292.827 220.449 292.91 218.432C292.931 217.929 292.997 217.434 292.62 217.082C291.163 215.719 291.562 213.689 290.797 212.065C290.413 211.251 291.236 210.604 291.843 210.075C292.105 209.846 292.551 209.784 292.683 210.115C293.167 211.332 294.522 212.275 294.181 213.729C293.172 218.028 295.981 221.941 295.356 226.189C295.314 226.472 295.494 226.899 295.863 226.898C296.395 226.897 296.323 226.391 296.365 226.045C296.677 223.424 297.213 220.89 296.561 218.139C296.222 216.709 296.415 215.141 295.486 213.802C294.781 212.784 295.078 211.335 294.204 210.42C293.602 209.79 292.57 209.472 294.079 208.667C294.606 208.386 294.35 207.584 294.133 207.035C293.82 206.242 293.487 205.452 293.105 204.691C292.841 204.166 292.686 203.211 291.853 203.622C291.094 203.996 291.505 204.833 291.871 205.301C292.596 206.231 292.605 207.299 292.638 208.349C292.667 209.245 291.933 209.61 291.179 209.814C290.703 209.942 290.461 209.588 290.429 209.191C290.232 206.744 289.15 204.584 288.221 202.38C287.15 199.84 285.956 197.362 284.577 194.963C283.933 193.841 282.571 193.207 282.34 191.944C281.967 189.901 280.853 188.181 279.612 186.784C277.672 184.601 275.604 182.524 273.776 180.231C273.564 179.966 273.301 179.608 272.871 179.874C272.425 181.333 273.357 182.384 274.201 183.835C271.886 183.072 270.158 182.084 268.882 180.49C268.445 179.945 267.837 179.059 268.578 178.31C269.295 177.585 269.941 178.353 270.584 178.653C270.729 178.72 270.863 178.822 271.014 178.866C271.405 178.983 271.868 179.401 272.191 178.995C272.566 178.526 272.135 178.104 271.791 177.761C271.527 177.497 271.258 177.23 270.955 177.012C267.373 174.428 263.81 171.816 260.179 169.302C259.26 168.666 258.343 168.024 257.422 167.39C256.235 166.572 255.298 165.435 253.977 164.797C250.941 163.33 247.823 162.101 244.525 161.344C243.541 161.117 242.551 160.806 241.804 160.052C241.193 159.436 240.883 158.805 241.904 158.278C242.239 158.104 242.63 157.981 242.572 157.501C242.509 156.972 242.074 156.849 241.649 156.754C240.035 156.392 238.423 156.026 236.803 155.692C236.349 155.599 235.754 155.334 235.44 155.761C235.028 156.323 235.764 156.539 236.015 156.891C236.716 157.875 236.48 158.937 235.401 158.931C233.12 158.917 230.815 158.779 228.649 157.894C228.275 157.74 228.042 157.43 228.023 157.03C228 156.508 228.418 156.324 228.806 156.128C229.368 155.844 230.1 156.056 230.705 155.409ZM159.267 225.722C158.016 227.175 158.047 228.796 158.595 230.513C158.737 230.958 158.795 231.462 158.757 231.928C158.593 233.994 159.9 235.89 159.441 237.99C159.403 238.161 159.567 238.39 159.669 238.577C159.896 238.997 160.252 239.215 160.728 239.079C161.269 238.924 161.282 238.473 161.186 238.037C160.702 235.818 161.017 233.448 159.904 231.346C159.7 230.961 159.761 230.531 159.784 230.096C159.864 228.613 159.822 227.134 159.262 225.723C159.439 224.323 159.61 222.922 159.795 221.522C160.203 218.424 160.183 215.28 160.797 212.204C160.895 211.712 161.316 211.006 160.659 210.799C159.959 210.578 159.774 211.38 159.558 211.906C159.479 212.098 159.473 212.323 159.45 212.535C159.07 215.964 158.698 219.394 158.313 222.822C158.187 223.942 158.343 224.955 159.267 225.722ZM177.905 290.213C174.726 288.437 171.392 284.462 167.473 281.178C166.927 280.72 166.626 280.083 166.189 279.556C164.37 277.366 162.849 274.958 160.679 273.017C158.896 271.423 157.877 269.142 156.865 266.953C156.597 266.372 156.452 265.673 156.035 265.231C153.781 262.834 152.703 259.806 151.504 256.863C149.567 252.107 147.205 247.47 146.921 242.193C146.912 242.033 146.919 241.853 146.849 241.719C145.28 238.745 145.843 235.33 144.887 232.239C144.048 229.528 144.732 226.822 144.793 224.122C144.853 221.462 145.042 218.786 145.436 216.156C145.937 212.807 146.47 209.455 147.609 206.227C148.384 204.033 149.014 201.777 149.55 199.511C150.061 197.353 151.079 195.408 151.914 193.396C153.196 190.31 154.558 187.228 156.238 184.35C157.151 182.786 158.662 181.553 159.55 179.891C161.831 175.624 165.698 172.748 168.851 169.241C172.352 165.346 176.627 162.444 180.698 159.27C182.583 157.8 184.601 156.479 186.561 155.139C188.98 153.486 191.831 151.947 194.663 151.55C198.138 151.063 201.09 149.2 204.559 148.802C207.991 148.407 211.317 147.123 214.748 146.681C217.743 146.296 220.812 146.436 223.85 146.259C228.378 145.995 232.925 146.098 237.428 146.779C239.527 147.096 241.643 147.294 243.593 148.365C244.425 148.821 245.582 148.648 246.568 148.865C249.489 149.508 252.243 150.696 255.138 151.464C261.244 153.083 266.007 157.175 271.137 160.584C274.084 162.542 276.939 164.598 279.362 167.189C280.788 168.715 282.477 169.927 284.016 171.313C284.87 172.083 285.414 173.186 286.198 174.048C289.917 178.135 293.055 182.661 295.816 187.408C298.008 191.178 299.877 195.136 301.145 199.372C301.845 201.711 302.355 204.084 302.983 206.398C303.864 209.645 303.972 213.013 305.023 216.191C305.056 216.292 305.11 216.402 305.098 216.501C304.641 220.3 305.692 224.013 305.714 227.816C305.747 233.697 304.375 239.277 303.029 244.854C302.302 247.868 301.049 250.836 300.251 253.838C299.365 257.17 297.43 259.913 296.245 263.038C295.518 264.953 294.453 266.668 292.849 268.005C292.525 268.275 292.187 268.599 292.018 268.972C290.361 272.628 287.409 275.328 285.046 278.459C283.245 280.847 280.629 282.394 278.571 284.55C275.506 287.762 271.516 289.865 268.084 292.651C266.097 294.263 263.664 295.012 261.494 296.256C258.649 297.888 255.346 298.532 252.581 300.161C249.799 301.799 246.545 301.022 243.9 302.518C241.533 303.857 238.933 303.675 236.429 304.028C232.311 304.607 228.164 305.113 224.014 305.29C221.209 305.41 218.373 304.952 215.559 304.675C213.278 304.451 210.998 304.181 208.738 303.807C206.007 303.356 203.306 302.747 200.71 301.744C197.577 300.534 194.403 299.444 191.293 298.157C186.915 296.345 182.994 293.828 177.905 290.213Z" fill="black"/>
    <path fill-rule="evenodd" clip-rule="evenodd" d="M262.317 257.919C261.261 260.124 258.983 261.651 257.135 263.552C255.826 264.899 253.928 265.573 252.35 266.662C250.043 268.254 247.673 269.834 244.99 270.81C244.553 270.969 243.704 271.076 243.97 271.767C244.233 272.453 245.008 272.718 245.74 272.38C247.048 271.775 248.325 271.105 249.603 270.437C252.155 269.103 254.618 267.63 256.812 265.736C257.236 265.37 257.784 265.164 258.246 265.66C258.658 266.103 258.409 266.639 258.093 266.969C256.748 268.372 255.672 269.943 253.816 270.953C250.936 272.519 247.861 273.549 244.925 274.93C242.663 275.993 240.27 276.454 237.831 276.776C237.673 276.797 237.499 276.75 237.353 276.798C236.628 277.038 235.767 277.363 235.945 278.247C236.139 279.208 237.072 278.858 237.693 278.703C240.568 277.988 243.305 276.792 246.13 275.976C249.173 275.098 251.916 273.639 254.488 272.015C257.426 270.161 260.407 268.284 262.974 265.819C264.198 264.643 265.766 263.847 266.626 262.254C266.953 261.649 267.446 261.147 267.539 260.415C267.61 259.859 267.933 259.351 268.396 259.106C270.494 257.998 271.543 256.126 272.63 254.105C273.959 251.635 275.866 249.439 276.937 246.85C277.681 245.051 278.086 243.099 278.828 241.252C279.197 240.334 279.347 239.247 279.706 238.241C280.958 234.733 281.37 231.12 280.8 227.418C280.696 226.742 280.716 226.032 280.777 225.346C280.935 223.561 280.799 221.778 280.22 220.123C279.011 216.669 279.588 212.91 278.318 209.472C278.064 208.786 278.258 207.893 279.251 207.736C280.24 207.579 280.613 208.344 280.684 209.1C280.963 212.092 282.601 214.743 282.753 217.757C282.923 221.135 283.332 224.517 282.955 227.896C282.851 228.825 283.061 229.696 282.98 230.594C282.539 235.534 281.791 240.421 279.468 244.879C278.884 246 278.838 247.211 278.253 248.314C276.419 251.774 274.574 255.223 272.327 258.437C271.745 259.268 271.089 260.054 270.24 260.647C268.937 261.558 268.885 263.349 267.529 264.296C263.672 266.988 260.964 271.055 256.817 273.413C255.425 274.205 254 274.946 252.55 275.624C248.908 277.326 245.287 279.169 241.303 279.866C238.09 280.429 235.065 282.022 231.661 281.62C230.806 281.519 229.86 281.851 229.004 282.133C226.137 283.077 223.239 283.01 220.313 282.606C217.475 282.215 214.574 282.082 211.811 281.398C209.064 280.717 206.263 280.18 203.634 278.955C200.774 277.621 197.638 276.808 195.118 274.842C191.932 272.356 188.204 270.42 186.291 266.556C185.746 265.456 184.597 265.596 183.743 265.783C183.043 265.935 183.406 266.756 183.644 267.274C183.95 267.936 184.975 268.668 184.076 269.283C183.324 269.798 182.638 268.831 182.167 268.225C181.014 266.743 179.346 265.815 178.162 264.352C177.567 263.617 177.201 262.837 176.913 261.982C176.733 261.446 176.706 260.884 177.289 260.573C177.861 260.268 178.271 260.596 178.667 261.025C179.528 261.96 180.187 263.094 181.296 263.786C181.645 264.004 182.094 264.362 182.462 264.057C182.92 263.677 182.445 263.188 182.223 262.95C180.531 261.133 180.121 258.599 178.502 256.678C176.516 254.321 175.573 251.265 174.39 248.431C173.532 246.374 172.534 244.363 171.841 242.239C171.078 239.899 172.054 237.601 172.27 235.295C172.359 234.347 173.524 234.276 174.04 235.159C174.576 236.075 174.903 237.056 174.954 238.178C175.19 243.282 177.045 247.928 179.165 252.472C179.499 253.188 179.936 253.845 180.153 254.629C180.784 256.903 182.228 258.681 183.749 260.405C183.959 260.644 184.234 260.861 184.35 261.143C186.569 266.535 191.384 269.122 195.899 272.119C197.474 273.165 198.849 274.571 200.684 275.141C204.602 276.356 208.296 278.161 212.348 279.07C215.6 279.799 218.821 280.063 222.115 280.08C223.138 280.085 224.132 279.959 225.138 279.83C226.607 279.643 228.032 279.432 229.536 280.024C230.566 280.43 231.878 280.446 232.578 279.078C232.921 278.407 232.779 278.03 232 278.083C231.096 278.144 230.067 278.033 229.326 278.433C228.042 279.124 227.074 278.331 225.98 278.136C225.602 278.069 225.275 277.824 225.26 277.387C225.24 276.83 225.688 276.751 226.098 276.589C228.03 275.824 230.096 275.708 232.083 275.737C235.866 275.792 239.209 273.937 242.863 273.544C243.302 273.497 243.572 273.25 243.421 272.78C243.256 272.269 242.887 272.011 242.327 272.04C240.24 272.148 238.237 272.782 236.187 273.069C233.195 273.488 230.234 274.938 227.287 274.5C223.355 273.915 219.298 274.246 215.463 272.924C214.117 272.46 212.661 272.301 211.249 272.034C207.885 271.397 205.281 269.315 202.594 267.436C201.291 266.524 199.923 265.666 198.713 264.657C194.492 261.139 191.139 256.947 189.476 251.585C189.204 250.705 189.241 249.816 190.159 249.349C191.02 248.911 191.782 249.373 192.201 250.107C193.41 252.224 194.784 254.252 195.665 256.55C196.204 257.958 196.956 259.204 198.2 260.147C199.511 261.139 200.776 262.182 201.894 263.423C203.368 265.059 205.252 266.112 207.354 266.851C210.353 267.905 213.285 269.147 216.271 270.239C219.755 271.513 223.458 270.806 227.03 271.269C231.293 271.823 235.259 270.469 239.283 269.485C244.193 268.284 248.735 265.957 252.534 262.837C256.256 259.78 259.885 256.531 262.901 252.503C266.283 247.986 268.055 243.136 269.318 237.877C269.502 237.111 269.927 236.401 270.239 235.664C270.534 234.967 270.966 234.396 271.806 234.664C272.58 234.911 272.868 235.62 272.691 236.344C272.147 238.568 271.921 240.891 270.799 242.946C270.405 243.667 270.083 244.414 270.049 245.212C269.964 247.237 269.085 248.973 267.905 250.486C266.061 252.851 264.607 255.5 262.317 257.919Z" fill="black"/>
    <path fill-rule="evenodd" clip-rule="evenodd" d="M284.998 252.876C284.575 253.352 284.025 253.826 283.385 253.323C282.808 252.869 283.087 252.261 283.435 251.745C285.578 248.572 286.833 244.945 287.757 241.345C288.588 238.109 289.139 234.684 289.003 231.249C288.982 230.724 289.112 230.19 289.2 229.665C289.456 228.125 289.581 226.606 288.916 225.112C287.958 222.957 288.74 220.67 288.47 218.448C288.208 216.294 288.145 214.224 287.194 212.112C286.4 210.351 286.193 208.244 285.573 206.31C284.939 204.33 284.128 202.464 283.251 200.592C282.632 199.271 282.542 197.736 281.699 196.456C281.395 195.995 281.627 195.365 282.27 195.18C282.944 194.986 283.314 195.378 283.671 195.941C285.168 198.306 285.729 201.049 286.85 203.55C288.016 206.153 288.412 208.953 289.335 211.615C290.211 214.14 290.613 216.893 290.844 219.614C291.074 222.327 291.13 225.061 291.361 227.754C291.553 229.999 291.219 232.081 290.999 234.24C290.506 239.099 289.78 243.832 287.144 248.134C286.266 249.567 286.306 251.537 284.998 252.876Z" fill="black"/>
    <path fill-rule="evenodd" clip-rule="evenodd" d="M276.652 190.076C277.196 190.874 278.075 191.76 278.476 192.828C279.67 196.009 281.902 198.617 283.163 201.744C284.439 204.91 285.251 208.211 286.081 211.523C287.573 217.479 287.476 223.558 287.663 229.616C287.721 231.483 287.242 233.336 286.551 235.103C286.453 235.356 286.391 235.644 286.057 235.654C285.646 235.667 285.534 235.348 285.461 235.027C285.134 233.598 285.07 232.152 285.392 230.716C285.633 229.644 285.616 228.593 285.446 227.525C285.126 225.512 284.882 223.504 285.129 221.444C285.362 219.5 284.88 217.599 284.496 215.713C284.197 214.244 283.943 212.768 283.657 211.299C283.051 208.18 281.527 205.396 280.109 202.6C279.532 201.461 278.775 200.448 278.553 199.126C278.256 197.35 276.711 196.306 275.83 194.862C275.156 193.755 274.485 192.669 274.288 191.371C274.186 190.696 274.374 190.08 275.036 189.724C275.571 189.436 276.07 189.496 276.652 190.076Z" fill="black"/>
    <path fill-rule="evenodd" clip-rule="evenodd" d="M265.095 256.736C268.18 253.41 270.518 249.761 272.079 245.677C273.707 241.422 275.086 236.996 275.119 232.498C275.142 229.48 276.009 226.499 275.531 223.491C275.49 223.234 275.514 222.958 275.549 222.696C275.673 221.763 275.902 220.672 276.988 220.682C278.079 220.691 277.887 221.858 278.077 222.661C278.963 226.419 277.958 230.18 277.723 233.91C277.479 237.764 276.039 241.464 274.608 245.119C273.247 248.594 271.094 251.597 269.238 254.767C267.708 257.381 265.637 259.66 263.594 261.917C263.107 262.455 262.519 263.018 261.825 262.459C261.036 261.824 261.569 261.113 262.045 260.512C263.078 259.206 264.137 257.92 265.095 256.736Z" fill="black"/>
    <path fill-rule="evenodd" clip-rule="evenodd" d="M198.299 272.097C195.149 269.809 192.033 267.483 189.623 264.401C187.497 261.682 185.173 259.093 183.562 256.012C183.215 255.349 182.726 254.571 183.55 254.06C184.478 253.485 185.102 254.338 185.428 254.999C186.611 257.399 188.647 259.226 189.857 261.616C190.918 263.711 192.854 265.095 194.761 266.341C196.288 267.338 197.728 268.411 199.12 269.574C201.385 271.468 203.929 272.665 206.771 273.566C209.962 274.576 213.272 274.971 216.413 276.091C217.828 276.595 219.232 276.129 220.637 276.364C221.647 276.533 222.99 276.623 222.948 277.794C222.907 278.943 221.376 278.922 220.627 278.687C217.389 277.67 214.015 277.992 210.721 276.936C206.765 275.668 203.012 273.974 199.17 272.468C198.876 272.354 198.589 272.221 198.299 272.097Z" fill="black"/>
    <path fill-rule="evenodd" clip-rule="evenodd" d="M264.65 272.163C263.711 273.124 262.169 273.543 262.273 275.239C262.276 275.289 262.114 275.388 262.021 275.399C258.133 275.878 255.473 278.791 252.139 280.372C251.114 280.858 250.04 281.296 249.003 281.569C246.698 282.178 244.596 283.101 242.636 284.408C242.549 284.466 242.437 284.518 242.336 284.517C236.979 284.494 231.923 286.601 226.576 286.654C225.553 286.664 224.53 286.726 223.507 286.758C222.746 286.781 221.98 286.779 221.324 286.313C220.424 285.673 220.492 284.998 221.486 284.548C221.682 284.46 221.893 284.328 222.093 284.336C224.61 284.432 227.007 283.407 229.555 283.659C232.651 283.964 235.639 283.136 238.656 282.627C241.174 282.202 243.42 280.961 245.914 280.36C248.107 279.831 250.374 278.915 252.454 277.77C254.275 276.768 256.259 276.123 258.034 274.95C259.383 274.059 260.708 273.175 261.879 272.074C262.402 271.583 262.996 271.24 263.617 270.918C264.032 270.703 264.506 270.271 264.918 270.766C265.348 271.282 264.917 271.767 264.65 272.163Z" fill="black"/>
    <path fill-rule="evenodd" clip-rule="evenodd" d="M282.27 255.889C280.84 259.853 278.855 263.268 276.339 266.448C274.612 268.631 272.594 270.423 270.446 272.131C269.78 272.66 269.198 273.285 268.803 274.056C268.754 274.151 268.72 274.301 268.644 274.325C266.935 274.882 266.012 276.555 264.417 277.231C263.276 277.715 262.275 278.242 261.464 279.242C260.228 280.767 258.209 281.216 256.54 282.088C254.349 283.234 252.147 284.408 249.847 285.363C249.014 285.709 248.129 285.939 247.304 286.298C246.467 286.663 245.597 286.784 245.292 285.775C244.999 284.804 245.785 283.952 246.633 283.962C248.403 283.984 249.854 283.316 251.323 282.57C253.867 281.276 256.542 280.22 258.932 278.648C259.644 278.179 260.291 277.639 261.206 277.565C261.764 277.519 262.434 277.244 262.476 276.743C262.596 275.315 263.878 275.206 264.664 274.509C266.737 272.669 269.207 271.264 270.755 268.834C271.69 267.368 273.038 266.168 273.957 264.695C275.306 262.533 277.58 261.096 278.651 258.807C279.339 257.337 280.188 256.335 281.71 255.87C281.801 255.843 281.912 255.874 282.27 255.889Z" fill="black"/>
    <path fill-rule="evenodd" clip-rule="evenodd" d="M267.863 267.288C270.209 264.392 272.453 261.405 274.939 258.634C276.375 257.032 276.505 255.008 277.329 253.222C277.748 252.315 278.044 251.42 278.935 250.772C279.644 250.257 279.999 249.345 280.315 248.506C281.106 246.401 281.821 244.266 282.661 242.181C282.989 241.366 283.26 239.976 284.429 240.384C285.503 240.757 285.115 242.097 284.79 242.911C283.076 247.199 281.518 251.57 279.044 255.51C277.09 258.624 275.105 261.72 273.048 264.766C271.983 266.342 270.261 267.288 268.927 268.623C268.455 269.095 267.601 269.62 266.959 268.908C266.226 268.096 267.259 267.649 267.863 267.288Z" fill="black"/>
    <path fill-rule="evenodd" clip-rule="evenodd" d="M206.281 283.389C205.55 282.709 204.814 282.339 205.155 281.597C205.56 280.716 206.38 281.105 206.975 281.356C210.425 282.808 214.075 283.415 217.733 284.029C218.394 284.14 219.413 284.216 219.219 285.292C219.011 286.45 218.164 286.126 217.335 285.961C215.042 285.506 212.718 285.209 210.432 284.726C208.898 284.401 207.354 284.015 206.281 283.389Z" fill="black"/>
</svg>
