<svg width="320" height="70" viewBox="0 0 320 70" fill="none" xmlns="http://www.w3.org/2000/svg">
    <path fill-rule="evenodd" clip-rule="evenodd" d="M11.8154 53.3017L6.99988 54.1247L10.6046 57.3198L9.92732 62.0001L14.1831 59.6734L18.5799 61.7426L17.605 57.1102L20.9999 53.7081L16.1417 53.173L13.8436 49.0001L11.8154 53.3017Z" fill="#114837"/>
    <path fill-rule="evenodd" clip-rule="evenodd" d="M33.9264 38.0001L34.6046 33.3189L30.9999 30.1255L35.8145 29.3017L37.8428 25.0001L40.1408 29.173L44.9999 29.7081L41.6041 33.1102L42.5791 37.7426L38.1831 35.6725L33.9264 38.0001Z" fill="#F6D500"/>
    <path fill-rule="evenodd" clip-rule="evenodd" d="M64.9999 18.9616L71.2637 15.3187L71.868 8.00006L77.2057 12.9404L84.2287 11.2642L81.2632 17.9597L84.9999 24.2426L77.8296 23.44L73.1158 29.0001L71.6492 21.8088L64.9999 18.9616Z" fill="#80A08D"/>
    <path fill-rule="evenodd" clip-rule="evenodd" d="M239 22.9616L245.264 19.3187L245.868 12.0001L251.206 16.9404L258.229 15.2642L255.263 21.9597L259 28.2426L251.83 27.44L247.116 33.0001L245.649 25.8088L239 22.9616Z" fill="#80A08D"/>
    <path fill-rule="evenodd" clip-rule="evenodd" d="M139.998 12.4431L136 14.152L139.717 16.4609L140.022 21.0001L143.253 17.9836L147.439 19.0803L145.717 14.9072L148 11.0465L148 11.0456L143.706 11.4832L140.93 8.00006L139.998 12.4431Z" fill="#F7B8AE"/>
    <path fill-rule="evenodd" clip-rule="evenodd" d="M304.185 45.8024L297.858 49.3354L297.126 56.6424L291.876 51.6096L284.824 53.1631L287.906 46.5204L284.28 40.1732L291.435 41.1008L296.245 35.6238L297.586 42.8396L304.185 45.8024Z" fill="#C9CFDA"/>
</svg>
